<svg id="E-tJ64ko_" viewBox="0 0 200 244.0809632943041" height="244.0809632943041" width="200"
    style="width: 200px; height: 244.081px; position: absolute; top: 50%; left: 50%; z-index: 0; cursor: pointer; transform: translate(-50%, -50%) scale(0.602259);">
    <defs id="SvgjsDefs3195"></defs>
    <g id="SvgjsG3196" featurekey="symbolFeature-0"
        transform="matrix(24.33739725063628,0,0,24.33739725063628,39.16718780259066,-19.22653854773888)" fill="#364f6b">
        <g xmlns="http://www.w3.org/2000/svg">
            <path
                d="M1.103,2.743C1.028,2.76,0.956,2.771,0.885,2.777c0.008,0.046,0.02,0.09,0.031,0.135C1.051,2.956,1.22,2.954,1.412,2.904   C1.74,2.819,2.084,2.609,2.38,2.313s0.506-0.641,0.591-0.968c0.049-0.192,0.051-0.361,0.008-0.496   C2.935,0.837,2.89,0.826,2.844,0.818c-0.006,0.07-0.017,0.143-0.034,0.218C2.724,1.409,2.5,1.792,2.18,2.112   S1.477,2.657,1.103,2.743z">
            </path>
            <path
                d="M0.878,2.196C0.865,2.28,0.857,2.364,0.856,2.449c0.055-0.004,0.113-0.013,0.173-0.027c0.314-0.073,0.64-0.265,0.917-0.542   c0.277-0.277,0.47-0.604,0.542-0.917c0.014-0.06,0.022-0.118,0.027-0.173c-0.084,0-0.169,0.008-0.252,0.021   C2.174,1.116,1.991,1.417,1.738,1.67C1.484,1.924,1.183,2.107,0.878,2.196z">
            </path>
            <path
                d="M2.384,4.209C2.84,4.231,3.304,4.068,3.652,3.72C4,3.371,4.164,2.908,4.141,2.451c-0.137,0.36-0.383,0.728-0.707,1.051   C3.112,3.825,2.744,4.072,2.384,4.209z">
            </path>
            <path
                d="M1.888,0.917C1.691,0.999,1.507,1.12,1.347,1.28c-0.16,0.16-0.28,0.344-0.362,0.541c0.187-0.085,0.369-0.213,0.53-0.374   S1.803,1.104,1.888,0.917z">
            </path>
            <path
                d="M1.859,3.76C1.754,3.792,1.653,3.812,1.557,3.823C1.702,3.92,1.931,3.931,2.202,3.85C2.551,3.746,2.923,3.508,3.25,3.182   c0.326-0.326,0.563-0.698,0.667-1.048c0.081-0.272,0.07-0.502-0.028-0.646C3.839,1.954,3.55,2.509,3.063,2.996   C2.694,3.365,2.266,3.637,1.859,3.76z">
            </path>
            <path
                d="M3.3,1.429C3.201,1.815,2.959,2.214,2.621,2.553c-0.339,0.338-0.738,0.58-1.124,0.68C1.345,3.272,1.201,3.288,1.068,3.281   c0.027,0.048,0.057,0.095,0.088,0.141c0.145,0.071,0.355,0.071,0.6-0.002c0.352-0.106,0.727-0.346,1.055-0.675   C3.141,2.416,3.38,2.041,3.486,1.689c0.074-0.245,0.074-0.455,0.003-0.6C3.443,1.057,3.396,1.027,3.348,1   C3.355,1.133,3.339,1.278,3.3,1.429z">
            </path>
        </g>
    </g>
    <g id="SvgjsG3197" featurekey="nameFeature-0"
        transform="matrix(3.288662410857363,0,0,3.288662410857363,-3.9463923055707126,63.669171869757456)"
        fill="#364f6b">
        <path
            d="M8.36 40.96 l0.32 0 l3 0 l0 3.64 l-3 0 l-3.56 0 l-0.32 0 l-2.72 0 l-0.88 0 c1.28 -5.44 2.56 -10.88 3.88 -16.32 l3 -12.68 l-2.96 0 l-3.04 0 l0 -3.64 l3.04 0 l3.24 0 l0.32 0 l0.28 0 l2.72 0 l0.88 0 l-3.28 13.76 l-1.6 6.68 l-0.2 0.92 l-0.52 2.24 l-0.36 1.48 l-0.32 1.32 l-0.64 2.6 l2.72 0 z M32.405 33.32 l0 2.24 l0 1.48 l0 1.32 l0 6.24 l-3.6 0 l0 -16.32 l0 -1.92 l-2.08 13.36 l-0.08 0 l-3.56 0 l-2.36 -13.84 l0.04 6.52 l0 0.92 l0 2.24 l0 1.48 l0 1.32 l0 6.24 l-3.6 0 l0 -16.32 l0 -16.32 l3.56 0 l0.48 0 l0.36 0 c0.12 0 0.16 0.04 0.2 0.12 l0.16 1 l0.24 1.36 c0.04 0.4 0.12 0.8 0.2 1.2 l0.2 1.36 c0.08 0.4 0.16 0.84 0.2 1.24 l0.24 1.28 l0.12 0.64 l0.24 1.44 c0.04 0.44 0.12 0.84 0.2 1.24 c0.04 0.44 0.12 0.88 0.2 1.28 c0.08 0.44 0.16 0.84 0.2 1.28 l0.2 1.16 l0.24 1.4 c0.08 0.4 0.16 0.84 0.2 1.28 l0.12 0.68 l0.28 1.64 c0 0.04 0 0.04 0.04 0.04 c0 0 0.04 0 0.04 -0.04 c0.04 0 0.04 -0.04 0.04 -0.08 l0.24 -1.4 c0.04 -0.44 0.12 -0.88 0.2 -1.32 l0.2 -1.36 c0.08 -0.48 0.16 -0.92 0.2 -1.4 l0.12 -0.76 c0.04 -0.28 0.08 -0.56 0.16 -0.84 c0 -0.24 0.04 -0.44 0.08 -0.68 c0.08 -0.44 0.16 -0.92 0.2 -1.36 l0.24 -1.32 c0.04 -0.44 0.12 -0.92 0.2 -1.36 c0.04 -0.48 0.12 -0.92 0.2 -1.4 l0.12 -0.76 l0.12 -0.84 l0.12 -0.72 l0.28 -1.88 l0.28 -1.64 c0 -0.12 0.04 -0.24 0.04 -0.36 c0.04 -0.08 0.08 -0.08 0.16 -0.12 l0.36 0 l0.16 0 l3.6 0 l0 13.76 l0 6.68 l0 0.92 z M46.97 25.439999999999998 l0 0 c-1.4 3.12 -4.04 3 -4.04 3 l-2.32 0 l0 0.92 l0 1.36 l0 0.64 l0 0.16 l0 1.8 l0 2.24 l0 1.48 l0 1.32 l0 6.24 l-3.6 0 l0 -16.32 l0 -8.56 l0 -4.68 l0 -3.08 l5.92 0 s4.76 -0.2 4.88 7.6 l0 0.28 l0 0.32 c0 0.56 0 1.08 -0.04 1.64 c-0.04 0.12 -0.04 0.28 -0.04 0.4 c0 0 -0.16 1.8 -0.72 3.08 c0 0.08 -0.04 0.12 -0.04 0.16 z M44.21 19.56 c0 -0.48 0 -0.96 -0.04 -1.48 c-0.04 -0.4 -0.12 -0.76 -0.24 -1.16 c-0.04 -0.24 -0.16 -0.44 -0.28 -0.64 c-0.2 -0.32 -0.44 -0.48 -0.76 -0.6 c-0.2 -0.08 -0.36 -0.08 -0.56 -0.08 l-1.4 0 c-0.32 0 -0.32 0 -0.32 0.36 l0 1.28 l0 2.88 l0 0.08 l0 0.12 l0 3.2 l0 0.92 c0 0.4 0 0.4 0.32 0.4 l1.4 0 c0.2 0 0.36 -0.04 0.56 -0.08 c0.32 -0.12 0.56 -0.32 0.76 -0.6 c0.12 -0.2 0.24 -0.44 0.28 -0.68 l0.04 0 c0 -0.12 0.04 -0.2 0.04 -0.32 c0.08 -0.28 0.12 -0.6 0.16 -0.92 c0.04 -0.48 0.04 -0.96 0.04 -1.44 l0 -1.24 z M62.015 15.600000000000001 l-3 0 l0 10.12 l0.04 6.68 l0 0.92 l0 2.24 l0 1.48 l0 1.32 l0 6.24 l-3.64 0 l0 -16.32 l0 -12.68 l-3 0 l0 -3.64 l3 0 l3.28 0 l0.32 0 l3 0 l0 3.64 z">
        </path>
    </g>
    <g id="SvgjsG3198" featurekey="sloganFeature-0"
        transform="matrix(0.9420347013782266,0,0,0.9420347013782266,19.53380177670949,224.9248982793054)"
        fill="#364f6b">
        <path
            d="M0.7 20.04 c-0.2 0.02 -0.28 -0.68 -0.12 -0.72 c1.16 -0.3 2.06 -0.48 2.06 -1.96 l0 -8.88 c0 -1.4 -0.82 -1.68 -1.68 -1.8 c-0.16 -0.02 -0.04 -0.68 0.1 -0.68 l5.52 0 c0.14 0 0.24 0.66 0.1 0.68 c-0.84 0.1 -1.64 0.4 -1.64 1.8 l0 8.88 c0 1.14 0.48 1.56 2.14 1.56 c3.02 0 4.22 -1.38 4.7 -2.14 c0.14 -0.22 0.68 -0.12 0.68 0.22 c0 1.02 -0.86 3.04 -2.12 3.04 c-1.12 -0.06 -2.22 -0.12 -3.9 -0.12 c-1.84 0 -4.02 -0.06 -5.84 0.12 z M21.48 20.32 c-4.16 0 -7.22 -3.08 -7.22 -7.24 c0 -4.04 2.88 -7.4 7.26 -7.4 c4.18 0 7.22 3.06 7.22 7.22 c0 4.06 -2.86 7.42 -7.26 7.42 z M22.259999999999998 18.96 c1.76 0 4.1 -1.16 4.1 -4.94 c0 -4.04 -2.74 -6.98 -5.62 -6.98 c-1.76 0 -4.08 1.16 -4.08 4.92 c0 4.08 2.74 7 5.6 7 z M45.34 6 c0.22 0 0.3 0.64 0.04 0.68 c-0.8 0.12 -1.32 0.44 -2.04 2.12 l-3.38 7.86 c-0.7 1.62 -1.02 2.54 -1.02 3.34 c0 0.12 -1.38 0.44 -1.44 0.3 l-4.86 -11.48 c-0.72 -1.72 -1.26 -2.02 -2.04 -2.14 c-0.26 -0.04 -0.2 -0.68 0.06 -0.68 l5.26 0 c0.26 0 0.3 0.64 0.06 0.68 c-0.74 0.12 -1.48 0.44 -0.78 2.12 l3.38 8.12 l3.38 -8.12 c0.72 -1.72 -0.08 -1.98 -1 -2.12 c-0.26 -0.04 -0.2 -0.68 0.06 -0.68 l4.32 0 z M46.84 20.04 c-0.2 0.02 -0.28 -0.68 -0.12 -0.72 c1.16 -0.3 2.06 -0.48 2.06 -1.96 l0 -8.88 c0 -1.28 -0.82 -1.62 -1.68 -1.84 c-0.16 -0.04 -0.06 -0.7 0.1 -0.68 c1.46 0.16 3.98 0.12 5.2 0.12 c1.82 0 3.14 -0.08 4.78 -0.12 c0.48 0 0.48 0.32 0.38 0.78 l-0.48 1.9 c-0.06 0.28 -0.56 0.28 -0.64 0 c-0.3 -0.98 -0.9 -1.54 -3.4 -1.54 c-1.4 0 -1.86 0.36 -1.86 1.4 l0 3.26 c0 0.52 0.26 0.62 0.66 0.62 l0.44 0 c1.62 0 3.02 -0.16 3.84 -0.9 c0.2 -0.18 0.64 -0.14 0.46 0.26 l-1.14 2.52 c-0.16 0.36 -0.46 0.32 -0.68 0.02 c-0.46 -0.64 -1.48 -0.9 -2.64 -0.9 l-0.28 0 c-0.4 0 -0.66 0.1 -0.66 0.62 l0 3.36 c0 1.14 0.48 1.56 2.14 1.56 c3.02 0 4.22 -1.38 4.7 -2.14 c0.14 -0.22 0.68 -0.12 0.68 0.22 c0 1.02 -0.86 3.04 -2.12 3.04 c-1.12 -0.06 -2.22 -0.12 -3.9 -0.12 c-1.84 0 -4.02 -0.06 -5.84 0.12 z M62.94 5.68 c-0.28 1.56 -0.58 3.32 -0.86 4.86 c-0.06 0.34 -1.3 0.54 -1.28 0.22 c0.06 -1.52 0.1 -3.24 0.14 -4.76 c0.02 -0.56 2.1 -0.88 2 -0.32 z M69.16000000000001 20.32 c-1.64 0 -4.14 -0.72 -3.9 -1.6 l0.2 -0.74 c0.56 -2.1 1.22 0.98 4.52 0.98 c1.68 0 2.5 -0.82 2.5 -1.98 c0 -0.94 -0.6 -1.34 -2.02 -2.22 l-1.94 -1.22 c-2.16 -1.36 -3.04 -2.2 -3.04 -3.7 c0 -2.46 2.4 -4.16 4.88 -4.16 c1.52 0 3.46 0.66 3.24 1.34 l-0.24 0.76 c-0.62 1.94 -1.12 -0.74 -3.86 -0.74 c-1.42 0 -2.16 0.72 -2.16 1.78 c0 0.9 0.54 1.4 1.88 2.22 l2.1 1.3 c2.12 1.32 2.98 2.22 2.98 3.66 c0 2.5 -2.46 4.32 -5.14 4.32 z M79.90000000000002 20.04 c-0.2 0.02 -0.28 -0.68 -0.12 -0.72 c1.16 -0.3 2.06 -0.48 2.06 -1.96 l0 -8.88 c0 -1.28 -0.82 -1.62 -1.68 -1.84 c-0.16 -0.04 -0.06 -0.7 0.1 -0.68 c0.82 0.1 1.66 0.12 2.5 0.12 c1.56 0 2.96 -0.12 3.98 -0.12 c4.84 0 7.46 2.88 7.46 6.74 c0 3.84 -2.62 7.34 -7.48 7.34 c-0.96 0 -2.2 -0.12 -3.68 -0.12 c-1.24 0 -2.22 0.02 -3.14 0.12 z M86.92000000000002 18.98 c3.26 0 4.88 -1.76 4.88 -5.14 c0 -3.82 -2.08 -6.82 -5.68 -6.82 c-1.42 0 -1.88 0.44 -1.88 1.46 l0 8.88 c0 1.08 0.74 1.62 2.68 1.62 z M110.70000000000002 19.5 c0.16 0 0.12 0.54 0 0.58 c-1.26 0.42 -3 0.36 -4.2 -1.18 l-3.08 -3.96 c-0.86 -1.12 -1.88 -1.28 -3.28 -1.3 l0 3.88 c0 1.4 0.96 1.64 2.24 1.8 c0.14 0.02 0.04 0.68 -0.12 0.68 l-6.06 0 c-0.16 0 -0.28 -0.66 -0.12 -0.68 c1.02 -0.14 1.66 -0.54 1.66 -1.8 l0 -8.92 c0 -1.32 -0.7 -1.7 -1.66 -1.96 c-0.16 -0.04 -0.06 -0.7 0.12 -0.68 c0.78 0.1 1.66 0.12 2.3 0.12 c1.48 0 2.86 -0.12 3.82 -0.12 c3.02 0 5.04 1.24 5.04 3.7 c0 2.32 -1.88 3.46 -3.56 3.56 l0 0.1 c0.8 0 1.38 0.34 2.26 1.44 l2.98 3.74 c0.62 0.78 1.22 1 1.66 1 z M100.72000000000001 12.719999999999999 c2.98 0 4.12 -0.52 4.12 -2.52 c0 -2.14 -1.36 -3.2 -3.14 -3.2 c-1.18 0 -1.56 0.48 -1.56 1.6 l0 4.12 l0.58 0 z M111.80000000000003 20.04 c-0.2 0.02 -0.28 -0.68 -0.12 -0.72 c1.16 -0.3 2.06 -0.48 2.06 -1.96 l0 -8.88 c0 -1.28 -0.82 -1.62 -1.68 -1.84 c-0.16 -0.04 -0.06 -0.7 0.1 -0.68 c1.46 0.16 3.98 0.12 5.2 0.12 c1.82 0 3.14 -0.08 4.78 -0.12 c0.48 0 0.48 0.32 0.38 0.78 l-0.48 1.9 c-0.06 0.28 -0.56 0.28 -0.64 0 c-0.3 -0.98 -0.9 -1.54 -3.4 -1.54 c-1.4 0 -1.86 0.36 -1.86 1.4 l0 3.26 c0 0.52 0.26 0.62 0.66 0.62 l0.44 0 c1.62 0 3.02 -0.16 3.84 -0.9 c0.2 -0.18 0.64 -0.14 0.46 0.26 l-1.14 2.52 c-0.16 0.36 -0.46 0.32 -0.68 0.02 c-0.46 -0.64 -1.48 -0.9 -2.64 -0.9 l-0.28 0 c-0.4 0 -0.66 0.1 -0.66 0.62 l0 3.36 c0 1.14 0.48 1.56 2.14 1.56 c3.02 0 4.22 -1.38 4.7 -2.14 c0.14 -0.22 0.68 -0.12 0.68 0.22 c0 1.02 -0.86 3.04 -2.12 3.04 c-1.12 -0.06 -2.22 -0.12 -3.9 -0.12 c-1.84 0 -4.02 -0.06 -5.84 0.12 z M139.90000000000003 19.32 c0.28 0.04 0.2 0.68 -0.04 0.68 l-5.28 0 c-0.26 0 -0.28 -0.64 -0.06 -0.68 c0.74 -0.14 1.54 -0.4 0.8 -2.12 l-0.22 -0.5 c-0.2 -0.48 -0.54 -0.52 -1.14 -0.52 l-4.08 0 c-0.6 0 -0.94 0.04 -1.14 0.52 l-0.2 0.5 c-0.7 1.72 0.06 1.98 1.02 2.12 c0.26 0.04 0.2 0.68 -0.06 0.68 l-4.32 0 c-0.24 0 -0.3 -0.64 -0.06 -0.68 c0.82 -0.14 1.3 -0.42 2.04 -2.12 l3.38 -7.76 c0.78 -1.76 1.02 -2.58 1.02 -3.34 c0 -0.12 1.4 -0.44 1.46 -0.3 l4.88 11.38 c0.72 1.7 1.2 2.02 2 2.14 z M133.82000000000002 15.059999999999999 c0.28 0 0.58 -0.04 0.46 -0.32 l-2.34 -5.6 l-2.36 5.6 c-0.12 0.28 0.18 0.32 0.46 0.32 l3.78 0 z M159.20000000000002 19.32 c0.16 0.02 0.04 0.68 -0.1 0.68 l-5.22 0 c-0.14 0 -0.24 -0.66 -0.12 -0.68 c0.84 -0.14 1.46 -0.54 1.4 -1.8 l-0.38 -6.72 l-3.24 6.6 c-0.42 0.86 -0.74 1.74 -0.8 2.06 c-0.04 0.24 -0.46 0.36 -0.78 0.36 c-0.3 0 -0.5 -0.12 -0.62 -0.36 l-4.62 -8.76 l-0.3 6.82 c-0.06 1.4 0.76 1.72 1.4 1.8 c0.16 0.02 0.04 0.68 -0.1 0.68 l-4.14 0 c-0.16 0 -0.28 -0.66 -0.12 -0.68 c0.86 -0.1 1.58 -0.4 1.66 -1.8 l0.64 -11.48 c0.02 -0.34 0.78 -0.36 0.98 0 l5.8 10.84 l5.38 -10.84 c0.18 -0.36 0.98 -0.34 1 0 l0.64 11.48 c0.08 1.4 0.8 1.7 1.64 1.8 z M165.20000000000002 20.32 c-1.64 0 -4.14 -0.72 -3.9 -1.6 l0.2 -0.74 c0.56 -2.1 1.22 0.98 4.52 0.98 c1.68 0 2.5 -0.82 2.5 -1.98 c0 -0.94 -0.6 -1.34 -2.02 -2.22 l-1.94 -1.22 c-2.16 -1.36 -3.04 -2.2 -3.04 -3.7 c0 -2.46 2.4 -4.16 4.88 -4.16 c1.52 0 3.46 0.66 3.24 1.34 l-0.24 0.76 c-0.62 1.94 -1.12 -0.74 -3.86 -0.74 c-1.42 0 -2.16 0.72 -2.16 1.78 c0 0.9 0.54 1.4 1.88 2.22 l2.1 1.3 c2.12 1.32 2.98 2.22 2.98 3.66 c0 2.5 -2.46 4.32 -5.14 4.32 z">
        </path>
    </g>
</svg>