<svg id="Si_pY_DzR" viewBox="0 0 200 176.3529065740767" height="176.3529065740767" width="200"
    style="width: 200px; height: 176.353px; position: absolute; top: 50%; left: 50%; z-index: 0; cursor: pointer; transform: translate(-50%, -50%) scale(0.714476);">
    <defs id="SvgjsDefs3422"></defs>
    <g id="SvgjsG3423" featurekey="JjiT9w-0"
        transform="matrix(0.0014066923388018498,0,0,0.0014066923388018498,57.79852648977511,-1.8666807335900548)"
        fill="#f8b500">
        <defs xmlns="http://www.w3.org/2000/svg"></defs>
        <g xmlns="http://www.w3.org/2000/svg">
            <path class="fil0"
                d="M42644 14489c-502,-512 -836,-798 -1300,-954 -495,-166 -1179,-213 -2373,-241 -758,-18 -1511,-178 -2217,-480 -683,-292 -1321,-716 -1875,-1270 -1169,-1169 -1753,-2700 -1753,-4232 0,-1532 584,-3063 1753,-4232 1169,-1169 2700,-1753 4232,-1753 1532,0 3063,584 4232,1753 554,554 978,1193 1270,1875 302,706 462,1459 480,2217 28,1184 74,1866 238,2363 153,464 433,795 932,1286 134,132 267,263 400,393 704,692 1399,1376 2091,2092 572,593 923,923 1397,1099 499,185 1189,235 2440,264 758,18 1511,178 2217,480 683,292 1321,716 1875,1270 1169,1169 1753,2700 1753,4232 0,1532 -584,3063 -1753,4232 -1169,1169 -2700,1753 -4232,1753l0 -2c-359,0 -719,-32 -1073,-96 -15,-2 -30,-4 -45,-7 -1027,-226 -3428,-32 -6438,599 -2541,533 -5498,1377 -8415,2543 -267,107 -621,243 -1020,398 -3879,1500 -12314,4761 -12458,8611 -7,187 -26,371 -46,567 -3,31 -6,62 -9,94 16,600 106,1171 319,1706 397,999 1237,1911 2855,2717 2115,1052 4667,2107 6927,2725 1795,491 3392,709 4406,427 729,-202 1496,-267 2260,-183 735,82 1468,302 2161,673 1458,780 2462,2077 2905,3542 443,1465 328,3099 -453,4557 -780,1458 -2077,2462 -3542,2905 -1465,443 -3099,328 -4557,-453 -694,-372 -1285,-859 -1760,-1426 -494,-589 -866,-1263 -1102,-1983 -415,-1264 -1477,-2671 -2867,-4043 -1626,-1605 -3689,-3150 -5702,-4369 -457,-277 -930,-482 -1413,-624 -508,-149 -1026,-228 -1548,-246 -1004,-34 -1948,154 -2864,461 -480,161 -954,356 -1426,571 -1565,901 -3380,1417 -5315,1417 -2945,0 -5612,-1194 -7542,-3124 -1930,-1930 -3124,-4597 -3124,-7542 0,-2945 1194,-5612 3124,-7542 1930,-1930 4597,-3124 7542,-3124 2581,0 4948,917 6793,2443 406,287 803,537 1232,739 435,204 908,362 1465,463 3215,585 7953,-340 12438,-1994 4727,-1744 9146,-4289 11179,-6721 345,-413 613,-920 768,-1458 142,-496 187,-1013 103,-1499 -145,-392 -389,-695 -792,-1101 -394,-397 -790,-790 -1187,-1184 -530,-526 -1060,-1052 -1585,-1587zm-715 40436c98,-98 256,-98 354,0 98,98 98,256 0,354l-3 3c-748,817 -1756,1255 -2783,1304 -1031,49 -2081,-295 -2906,-1045l-8 -8 0 0c-98,-98 -98,-256 0,-354 98,-98 256,-98 354,0 721,651 1637,951 2537,908 899,-43 1783,-427 2439,-1144 5,-6 11,-13 17,-19zm12952 -36913c-98,-98 -98,-256 0,-354 98,-98 256,-98 354,0 788,788 1182,1821 1182,2853 0,1033 -394,2065 -1182,2853 -98,98 -256,98 -354,0 -98,-98 -98,-256 0,-354 690,-690 1035,-1595 1035,-2500 0,-905 -345,-1809 -1035,-2500zm-49771 18485c0,138 -112,250 -250,250 -138,0 -250,-112 -250,-250 0,-2074 840,-3951 2199,-5310 1359,-1359 3236,-2199 5310,-2199 138,0 250,112 250,250 0,138 -112,250 -250,250 -1936,0 -3688,785 -4956,2053 -1268,1268 -2053,3021 -2053,4956zm17235 4307c-37,-17 -71,-39 -101,-66 -539,1463 -1389,2776 -2470,3857 -37,37 -74,73 -111,109 706,-167 1434,-256 2198,-230 591,20 1175,108 1748,277 544,160 1079,393 1600,709 2065,1251 4181,2835 5849,4482 1475,1456 2609,2970 3067,4365 204,622 526,1206 955,1717 413,492 924,915 1523,1235 1262,675 2679,775 3950,390 1271,-385 2395,-1253 3070,-2515 675,-1262 775,-2679 390,-3950 -385,-1271 -1253,-2395 -2515,-3070 -600,-321 -1235,-512 -1874,-583 -663,-74 -1329,-17 -1960,158 -1164,323 -2906,99 -4828,-427 -2322,-635 -4926,-1709 -7074,-2778 -1816,-904 -2772,-1962 -3239,-3139 -71,-178 -130,-358 -179,-540zm-6454 5415c421,-213 843,-421 1268,-616 751,-434 1439,-964 2048,-1573 1785,-1785 2890,-4252 2890,-6976 0,-2724 -1104,-5191 -2890,-6976 -1785,-1785 -4252,-2890 -6976,-2890 -2724,0 -5191,1104 -6976,2890 -1785,1785 -2890,4252 -2890,6976 0,2724 1104,5191 2890,6976 1785,1785 4252,2890 6976,2890 1293,0 2528,-249 3660,-701zm33320 -20533c-352,-227 -685,-494 -993,-802 -554,-554 -978,-1193 -1270,-1875 -269,-627 -425,-1293 -468,-1965 -152,282 -330,547 -530,786 -2121,2538 -6671,5171 -11516,6959 -4600,1697 -9491,2641 -12853,2029 -303,-55 -585,-125 -851,-209 1281,1687 2072,3766 2159,6027 2164,-3394 8894,-5997 12282,-7307 375,-145 706,-273 1010,-395 2964,-1185 5968,-2043 8550,-2584 1718,-360 3257,-580 4480,-664zm2146 37c51,9 100,18 146,28 6,1 12,3 18,4 307,56 618,84 929,84l0 -2c1327,0 2654,-506 3666,-1519 1012,-1012 1519,-2339 1519,-3666 0,-1327 -506,-2654 -1519,-3666 -483,-483 -1035,-850 -1622,-1101 -614,-263 -1267,-402 -1920,-417 -1343,-31 -2098,-89 -2702,-314 -629,-234 -1039,-615 -1694,-1293 -686,-710 -1376,-1389 -2075,-2076 -133,-131 -266,-262 -400,-393 -592,-583 -928,-988 -1132,-1605 -193,-584 -246,-1327 -276,-2598 -15,-653 -154,-1306 -417,-1920 -252,-588 -619,-1140 -1101,-1622 -1012,-1012 -2339,-1519 -3666,-1519 -1327,0 -2654,506 -3666,1519 -1012,1012 -1519,2339 -1519,3666 0,1327 506,2654 1519,3666 483,483 1035,850 1622,1101 614,263 1267,402 1920,417 1278,30 2022,84 2611,281 620,208 1025,549 1615,1151 524,534 1051,1057 1578,1580 397,394 794,789 1190,1187 495,499 794,879 984,1415 4,10 7,19 10,29 12,36 24,72 35,109 176,576 226,1308 254,2526 15,653 154,1306 417,1920 252,588 619,1140 1101,1622 733,733 1631,1201 2573,1404z"
                style="fill: #f8b500; fill-rule: nonzero;"></path>
        </g>
    </g>
    <g id="SvgjsG3424" featurekey="j7RXiA-0"
        transform="matrix(3.800835985569977,0,0,3.800835985569977,-2.2805030412458502,78.19498408658013)"
        fill="#111111">
        <path
            d="M10.86 8 q-0.66 0.72 -1.6 1.87 t-1.94 2.5 t-1.97 2.78 t-1.71 2.71 l7.44 0 l0 2.14 l-10.48 0 l0 -1.58 q0.4 -0.74 0.93 -1.61 t1.13 -1.79 t1.25 -1.86 t1.29 -1.81 t1.25 -1.66 t1.15 -1.41 l-6.66 0 l0 -2.14 l9.92 0 l0 1.86 z M16.439999999999998 6.140000000000001 q0.44 0.76 0.98 1.86 t1.1 2.31 t1.11 2.46 t1.01 2.31 q0.46 -1.06 1 -2.31 t1.1 -2.46 t1.1 -2.31 t0.98 -1.86 l2.28 0 q0.18 1.52 0.34 3.23 t0.29 3.5 t0.24 3.6 t0.19 3.53 l-2.48 0 q-0.08 -2.42 -0.19 -4.98 t-0.33 -4.96 q-0.22 0.46 -0.52 1.1 t-0.64 1.39 t-0.69 1.55 t-0.68 1.55 t-0.61 1.4 t-0.48 1.11 l-1.88 0 q-0.2 -0.46 -0.48 -1.12 t-0.61 -1.41 t-0.68 -1.55 t-0.69 -1.54 t-0.64 -1.39 t-0.52 -1.09 q-0.22 2.4 -0.33 4.96 t-0.19 4.98 l-2.48 0 q0.08 -1.72 0.19 -3.56 t0.24 -3.65 t0.29 -3.51 t0.34 -3.14 l2.34 0 z M35.019999999999996 6 q3.02 0 4.63 1.1 t1.61 3.44 q0 1.22 -0.43 2.09 t-1.25 1.42 t-2 0.81 t-2.7 0.26 l-1.26 0 l0 4.88 l-2.52 0 l0 -13.66 q0.88 -0.2 1.95 -0.27 t1.97 -0.07 z M35.199999999999996 8.18 q-0.96 0 -1.58 0.06 l0 4.72 l1.22 0 q1.82 0 2.8 -0.51 t0.98 -1.93 q0 -0.68 -0.26 -1.14 t-0.72 -0.72 t-1.09 -0.37 t-1.35 -0.11 z M53.22 6.140000000000001 l0 2.18 l-4.26 0 l0 11.68 l-2.54 0 l0 -11.68 l-4.26 0 l0 -2.18 l11.06 0 z">
        </path>
    </g>
    <g id="SvgjsG3425" featurekey="XxmBkf-0"
        transform="matrix(0.8301683397614925,0,0,0.8301683397614925,18.389473769215204,159.45067866983817)"
        fill="#f8b500">
        <path
            d="M3.26 5.84 l0 12.96 l6.6 0 l0 1.2 l-7.92 0 l0 -14.16 l1.32 0 z M15.896 12.92 q0 2.7 1.66 4.45 t4.34 1.79 q2.7 0 4.34 -1.77 t1.66 -4.47 q0 -2.74 -1.64 -4.47 t-4.38 -1.77 q-2.68 0 -4.32 1.76 t-1.66 4.48 z M21.896 5.48 q2.16 0 3.82 0.95 t2.57 2.66 t0.93 3.83 q0 3.26 -2.06 5.33 t-5.26 2.11 q-3.22 0 -5.24 -2.09 t-2.08 -5.35 q0.02 -3.26 2.04 -5.32 t5.28 -2.12 z M35.152 5.84 l4.56 12.42 l4.6 -12.42 l1.4 0 l-5.38 14.16 l-1.32 0 l-5.28 -14.16 l1.42 0 z M59.808 5.84 l0 1.2 l-7.34 0 l0 5.04 l6.88 0 l0 1.2 l-6.88 0 l0 5.52 l7.66 0 l0 1.2 l-8.98 0 l0 -14.16 l8.66 0 z M66.624 5.84 l1.2 0 l0 4.56 l-1.2 0 l0 -4.56 z M79.36 5.48 q2.46 0 3.86 1.78 l-1.14 0.82 q-1.04 -1.4 -2.76 -1.4 q-1.4 0 -2.27 0.72 t-0.91 1.96 q0 1.08 0.66 1.75 t2.3 1.13 q2.16 0.64 2.88 1.13 t1.09 1.21 t0.37 1.8 q0 1.72 -1.23 2.83 t-3.17 1.15 q-3.06 0 -4.6 -2.14 l1.26 -0.84 q1.06 1.76 3.24 1.78 q1.42 0 2.3 -0.79 t0.88 -1.99 q0 -0.7 -0.25 -1.15 t-0.76 -0.78 t-1.3 -0.6 t-1.85 -0.63 q-1.6 -0.52 -2.37 -1.46 t-0.77 -2.4 q0 -1.72 1.29 -2.8 t3.25 -1.08 z M102.712 18.8 q3.04 0 4.8 -1.54 t1.78 -4.24 q0 -2.88 -1.75 -4.42 t-4.89 -1.56 l-2.76 0 l0 11.76 l2.82 0 z M102.99199999999999 5.84 q3.56 0 5.57 1.92 t2.05 5.26 q0 1.96 -0.89 3.55 t-2.56 2.51 t-4.09 0.92 l-4.5 0 l0 -14.16 l4.42 0 z M121.348 12.08 q1.54 0 2.38 -0.69 t0.84 -1.83 t-0.82 -1.82 t-2.44 -0.7 l-2.86 0 l0 5.04 l2.9 0 z M120.94800000000001 5.84 q4.9 0 4.94 3.72 q0 3.14 -3.62 3.64 l4.12 6.8 l-1.5 0 l-3.98 -6.72 l-2.46 0 l0 6.72 l-1.32 0 l0 -14.16 l3.82 0 z M141.204 5.84 l0 1.2 l-7.34 0 l0 5.04 l6.88 0 l0 1.2 l-6.88 0 l0 5.52 l7.66 0 l0 1.2 l-8.98 0 l0 -14.16 l8.66 0 z M149.62 15.04 l6.5 0 l-3.2 -7.76 z M153.66 5.84 l5.96 14.16 l-1.48 0 l-1.54 -3.76 l-7.5 0 l-1.6 3.76 l-1.38 0 l6.18 -14.16 l1.36 0 z M167.056 5.84 l5.16 11.88 l5.16 -11.88 l1.88 0 l0 14.16 l-1.32 0 l0 -12.48 l-0.04 0 l-5.4 12.48 l-0.58 0 l-5.48 -12.48 l-0.04 0 l0 12.48 l-1.32 0 l0 -14.16 l1.98 0 z M190.592 5.48 q2.46 0 3.86 1.78 l-1.14 0.82 q-1.04 -1.4 -2.76 -1.4 q-1.4 0 -2.27 0.72 t-0.91 1.96 q0 1.08 0.66 1.75 t2.3 1.13 q2.16 0.64 2.88 1.13 t1.09 1.21 t0.37 1.8 q0 1.72 -1.23 2.83 t-3.17 1.15 q-3.06 0 -4.6 -2.14 l1.26 -0.84 q1.06 1.76 3.24 1.78 q1.42 0 2.3 -0.79 t0.88 -1.99 q0 -0.7 -0.25 -1.15 t-0.76 -0.78 t-1.3 -0.6 t-1.85 -0.63 q-1.6 -0.52 -2.37 -1.46 t-0.77 -2.4 q0 -1.72 1.29 -2.8 t3.25 -1.08 z">
        </path>
    </g>
</svg>