<svg id="l46tMPYyk" viewBox="0 0 300 80.05802200526153" height="80.05802200526153" width="300"
    style="width: 300px; height: 80.058px; position: absolute; top: 50%; left: 50%; z-index: 0; cursor: pointer; transform: translate(-50%, -50%) scale(0.638);">
    <defs id="SvgjsDefs2731"></defs>
    <g id="SvgjsG2732" featurekey="symbolFeature-0"
        transform="matrix(0.9126437385862524,0,0,0.9126437385862524,-5.027365142617121,-6.237007410460777)"
        fill="#111111">
        <path xmlns="http://www.w3.org/2000/svg"
            d="M50,93.166C26.198,93.166,6.834,73.802,6.834,50S26.198,6.834,50,6.834S93.166,26.198,93.166,50S73.802,93.166,50,93.166z   M50,8.834C27.301,8.834,8.834,27.301,8.834,50S27.301,91.166,50,91.166S91.166,72.699,91.166,50S72.699,8.834,50,8.834z">
        </path>
        <path xmlns="http://www.w3.org/2000/svg"
            d="M44.714,46.55l-0.107-0.742c18.198-2.623,28.245-13.025,31.72-17.375l0.586,0.468C73.382,33.32,63.177,43.889,44.714,46.55z  ">
        </path>
        <circle xmlns="http://www.w3.org/2000/svg" cx="44.793" cy="46.114" r="2.82"></circle>
        <circle xmlns="http://www.w3.org/2000/svg" cx="76.514" cy="28.767" r="2.82"></circle>
        <path xmlns="http://www.w3.org/2000/svg"
            d="M33.874,80.997c-3.484-4.387-9.012-13.539-6.895-25.552l0.738,0.131c-2.066,11.723,3.338,20.666,6.743,24.954L33.874,80.997  z">
        </path>
        <circle xmlns="http://www.w3.org/2000/svg" cx="27.345" cy="55.653" r="2.82"></circle>
        <circle xmlns="http://www.w3.org/2000/svg" cx="34.08" cy="80.649" r="2.82"></circle>
        <path xmlns="http://www.w3.org/2000/svg"
            d="M78.553,58.284l-0.75-0.021c0.262-9.375-3.322-18.348-10.093-25.265c-7.05-7.204-16.891-11.292-27.026-11.233l-0.005-0.75  c10.321-0.04,20.376,4.11,27.567,11.458C75.16,39.537,78.82,48.704,78.553,58.284z">
        </path>
        <circle xmlns="http://www.w3.org/2000/svg" cx="78.128" cy="58.131" r="2.82"></circle>
        <circle xmlns="http://www.w3.org/2000/svg" cx="40.819" cy="21.442" r="2.82"></circle>
        <path xmlns="http://www.w3.org/2000/svg"
            d="M55.399,79.061c-22.622-1.116-37.959-15.928-44.77-29.418c-5.007-9.918-5.79-19.582-2.043-25.222  c2.418-3.64,6.575-5.361,12.009-4.983l-0.052,0.748c-5.164-0.361-9.073,1.249-11.333,4.65c-3.598,5.416-2.798,14.791,2.088,24.469  c6.715,13.302,21.837,27.906,44.138,29.006L55.399,79.061z">
        </path>
        <circle xmlns="http://www.w3.org/2000/svg" cx="55.277" cy="78.637" r="2.82"></circle>
        <path xmlns="http://www.w3.org/2000/svg"
            d="M23.574,83.267C13.12,81.553,6.04,74.011,5.536,64.052c-0.484-9.58,5.413-20.969,19.679-24.818l0.195,0.724  C11.548,43.698,5.816,54.734,6.286,64.014c0.386,7.634,5.162,16.505,17.41,18.513L23.574,83.267z">
        </path>
        <circle xmlns="http://www.w3.org/2000/svg" cx="25.179" cy="39.64" r="2.82"></circle>
        <path xmlns="http://www.w3.org/2000/svg"
            d="M72.426,94.555c-0.325,0-0.654-0.015-0.988-0.046c-6.336-0.589-12.075-6.442-15.354-15.658l0.707-0.252  c3.178,8.934,8.679,14.602,14.716,15.163c3.25,0.309,6.127-1.001,7.521-3.397c1.443-2.479,1.026-5.686-1.145-8.796l0.615-0.43  c2.345,3.36,2.773,6.86,1.178,9.603C78.278,93.144,75.556,94.555,72.426,94.555z">
        </path>
        <path xmlns="http://www.w3.org/2000/svg"
            d="M63.068,18.924l-0.713-0.234c1.704-5.167,4.714-8.496,8.26-9.131c2.183-0.394,4.329,0.351,5.595,1.938  c1.251,1.568,1.453,3.679,0.556,5.79l-0.689-0.293c0.786-1.85,0.621-3.683-0.452-5.029c-1.094-1.371-2.963-2.01-4.877-1.667  C67.481,10.882,64.683,14.027,63.068,18.924z">
        </path>
        <circle xmlns="http://www.w3.org/2000/svg" cx="62.771" cy="18.677" r="2.82"></circle>
    </g>
    <g id="SvgjsG2733" featurekey="nameFeature-0"
        transform="matrix(1.5765724452371357,0,0,1.5765724452371357,96.84701298087387,-15.01754723495701)"
        fill="#111111">
        <path
            d="M20.971 11.428999999999998 l-5.6571 6.2857 l-13.314 0 l0 -6.2857 l18.971 0 z M26.286 11.428999999999998 l0 6.2857 l-14.571 16 l14.571 0 l0 6.2857 l-24.286 0 l0 -6.2857 l20.343 -22.286 l3.9429 0 z M55.71428571428571 11.428999999999998 l7.4286 0 l0 28.571 l-7.4286 0 l0 -16 l-5.0286 9.7143 l-3.7143 0 l-11.429 -22.286 l6.4571 0 l6.8571 12.971 z M34.57138571428571 12 l7.4286 14.514 l0 13.486 l-7.4286 0 l0 -28 z M79.71457142857143 40 l-7.4286 0 l0 -28.571 l7.4286 0 l0 28.571 z M93.14257142857143 11.428999999999998 l4.2857 4.2857 l0 12 l-4.2857 4.2857 l-12.286 0 l0 -6.2857 l9.1429 0 l0 -8 l-9.1429 0 l0 -6.2857 l12.286 0 z M111.82858571428572 11.428999999999998 l0 6.2857 l-7.2571 0 l0 -6.2857 l7.2571 0 z M112.97138571428572 11.428999999999998 l15.886 0 l0 6.2857 l-8.4571 0 l0 22.286 l-7.4286 0 l0 -28.571 z">
        </path>
    </g>
    <g id="SvgjsG2734" featurekey="sloganFeature-0"
        transform="matrix(0.7732751866640236,0,0,0.7732751866640236,101.03588105537149,55.38361035005994)"
        fill="#111111">
        <path
            d="M2.54 18.76 l0 -10.76 c0 -0.42 0.32 -0.64 0.64 -0.64 s0.66 0.22 0.66 0.64 l0 10.06 l3.98 0 c0.44 0 0.68 0.34 0.68 0.68 s-0.24 0.66 -0.68 0.66 l-4.62 0 c-0.4 0 -0.66 -0.32 -0.66 -0.64 z M18.252000000000002 15.86 l0 -4.96 c0 -2.4 1.24 -3.68 3.64 -3.68 l0.52 0 c2.38 0 3.64 1.28 3.64 3.68 l0 4.96 c0 2.2 -1.46 3.64 -3.64 3.64 l-0.52 0 c-2.22 0 -3.64 -1.46 -3.64 -3.64 z M21.892000000000003 18.16 l0.52 0 c1.44 0 2.3 -0.9 2.3 -2.3 l0 -4.96 c0 -1.56 -0.76 -2.36 -2.3 -2.36 l-0.52 0 c-1.52 0 -2.36 0.82 -2.36 2.36 l0 4.96 c0 1.46 0.92 2.3 2.36 2.3 z M37.424 7.800000000000001 l2.62 9.02 l2.74 -8.98 c0.26 -0.86 1.48 -0.52 1.24 0.32 l-3.2 10.68 c-0.1 0.36 -0.42 0.56 -0.76 0.56 s-0.7 -0.2 -0.8 -0.56 l-3.06 -10.66 c-0.26 -0.9 1 -1.16 1.22 -0.38 z M54.336000000000006 18.7 l0 -10.64 c0 -0.46 0.36 -0.7 0.7 -0.7 l4.6 0 c0.44 0 0.66 0.32 0.66 0.66 s-0.22 0.68 -0.66 0.68 l-3.96 0 l0 3.88 l3.14 0 c0.46 0 0.68 0.32 0.68 0.66 s-0.24 0.7 -0.68 0.7 l-3.14 0 l0 4.14 l3.96 0 c0.42 0 0.64 0.34 0.64 0.66 c0 0.34 -0.22 0.66 -0.64 0.66 l-4.6 0 c-0.34 0 -0.7 -0.12 -0.7 -0.7 z M71.56800000000001 6.66 l0 0.84 c0 0.92 -1.32 0.9 -1.32 0 l0 -0.84 c0 -0.94 1.32 -0.9 1.32 0 z M81.14000000000001 17.68 c-0.44 -0.82 0.68 -1.42 1.2 -0.6 c0.26 0.42 1.04 1.14 2.28 1.14 c0.52 0 1.82 -0.38 2 -1.86 c0.12 -0.9 -0.74 -1.78 -2.22 -2.52 c-2.08 -0.98 -3.66 -1.84 -3.66 -3.56 c0 -2.04 1.72 -3 3.56 -3 c1.66 0 2.58 1.02 2.9 1.54 c0.46 0.74 -0.54 1.46 -1.1 0.74 c-0.28 -0.36 -0.82 -0.96 -1.8 -0.96 c-1.1 0 -2.24 0.52 -2.24 1.68 c0 0.92 1.02 1.44 2.54 2.16 c1.78 0.88 3.64 1.74 3.36 4.08 c-0.22 1.84 -1.62 3.02 -3.34 3.02 c-1.3 0 -2.9 -0.7 -3.48 -1.86 z M111.90400000000002 18.78 l0 -10.76 c0 -0.54 0.38 -0.66 0.66 -0.66 l3.2 0 c2.64 0 3.94 1.26 3.94 3.74 l0 5.12 c0 1.56 -1.22 3.2 -3.88 3.2 l-3.26 0 c-0.28 0 -0.66 -0.16 -0.66 -0.64 z M118.38400000000001 16.22 l0 -5.12 c0 -1.64 -0.88 -2.4 -2.62 -2.4 l-2.54 0 l0 9.42 l2.6 0 c1.22 0 2.56 -0.66 2.56 -1.9 z M131.836 15.9 l0 2.86 c0 0.44 -0.34 0.64 -0.66 0.64 c-0.34 0 -0.66 -0.2 -0.66 -0.64 l0 -10.74 c0 -0.4 0.22 -0.66 0.66 -0.66 l2.7 0 c0.76 0 3.16 0.22 3.16 2.92 l0 2.5 c0 1.52 -0.56 2.48 -1.84 2.9 l1.36 2.74 c0.28 0.54 -0.14 0.98 -0.58 0.98 c-0.24 0 -0.54 -0.16 -0.7 -0.5 l-1.46 -3 l-1.98 0 z M135.716 12.780000000000001 l0 -2.5 c0 -0.48 -0.18 -1.58 -1.84 -1.58 l-2.04 0 l0 5.86 l1.86 0 c0.98 0 2.02 -0.22 2.02 -1.78 z M147.848 18.7 l0 -10.64 c0 -0.46 0.36 -0.7 0.7 -0.7 l4.6 0 c0.44 0 0.66 0.32 0.66 0.66 s-0.22 0.68 -0.66 0.68 l-3.96 0 l0 3.88 l3.14 0 c0.46 0 0.68 0.32 0.68 0.66 s-0.24 0.7 -0.68 0.7 l-3.14 0 l0 4.14 l3.96 0 c0.42 0 0.64 0.34 0.64 0.66 c0 0.34 -0.22 0.66 -0.64 0.66 l-4.6 0 c-0.34 0 -0.7 -0.12 -0.7 -0.7 z M170.26000000000002 18.86 l-0.78 -2.54 l-3.72 0 l-0.74 2.5 c-0.26 0.86 -1.58 0.6 -1.3 -0.28 c1.04 -3.5 2.06 -7.06 3.08 -10.6 c0.12 -0.38 0.44 -0.58 0.76 -0.58 c0.3 0 0.62 0.2 0.74 0.58 l3.18 10.6 c0.22 0.76 -0.96 1.18 -1.22 0.32 z M167.60000000000002 10.06 l-1.44 4.92 l2.94 0 c-0.5 -1.68 -0.96 -3.12 -1.5 -4.92 z M190.512 18.76 l0 -8.92 l-3.18 9 c-0.18 0.5 -0.84 0.62 -1.04 0 l-3.08 -9 l0 8.92 c0 0.42 -0.32 0.64 -0.66 0.64 s-0.68 -0.22 -0.68 -0.64 l0 -10.74 c0 -0.38 0.28 -0.66 0.68 -0.66 l0.64 0 c0.44 0 0.68 0.32 0.78 0.62 c0.96 2.86 1.84 5.4 2.82 8.28 l2.9 -8.34 c0.1 -0.28 0.28 -0.56 0.7 -0.56 l0.8 0 c0.58 0 0.66 0.32 0.66 0.64 l0 10.76 c0 0.42 -0.34 0.64 -0.68 0.64 s-0.66 -0.22 -0.66 -0.64 z  M202.604 17.68 c-0.44 -0.82 0.68 -1.42 1.2 -0.6 c0.26 0.42 1.04 1.14 2.28 1.14 c0.52 0 1.82 -0.38 2 -1.86 c0.12 -0.9 -0.74 -1.78 -2.22 -2.52 c-2.08 -0.98 -3.66 -1.84 -3.66 -3.56 c0 -2.04 1.72 -3 3.56 -3 c1.66 0 2.58 1.02 2.9 1.54 c0.46 0.74 -0.54 1.46 -1.1 0.74 c-0.28 -0.36 -0.82 -0.96 -1.8 -0.96 c-1.1 0 -2.24 0.52 -2.24 1.68 c0 0.92 1.02 1.44 2.54 2.16 c1.78 0.88 3.64 1.74 3.36 4.08 c-0.22 1.84 -1.62 3.02 -3.34 3.02 c-1.3 0 -2.9 -0.7 -3.48 -1.86 z">
        </path>
    </g>
</svg>