<svg id="5fzeFx5rMh" viewBox="0 0 360.07248530652066 360.9375" height="360.9375" width="360.07248530652066"
    style="width: 360.072px; height: 360.938px; position: absolute; top: 50%; left: 50%; z-index: 0; cursor: pointer; transform: translate(-50%, -50%) scale(0.407273);">
    <defs id="SvgjsDefs3156">
        <linearGradient id="SvgjsLinearGradient3165">
            <stop id="SvgjsStop3166" stop-color="#8f5e25" offset="0"></stop>
            <stop id="SvgjsStop3167" stop-color="#fbf4a1" offset="0.5"></stop>
            <stop id="SvgjsStop3168" stop-color="#8f5e25" offset="1"></stop>
        </linearGradient>
        <linearGradient id="SvgjsLinearGradient3169">
            <stop id="SvgjsStop3170" stop-color="#8f5e25" offset="0"></stop>
            <stop id="SvgjsStop3171" stop-color="#fbf4a1" offset="0.5"></stop>
            <stop id="SvgjsStop3172" stop-color="#8f5e25" offset="1"></stop>
        </linearGradient>
        <linearGradient id="SvgjsLinearGradient3173">
            <stop id="SvgjsStop3174" stop-color="#8f5e25" offset="0"></stop>
            <stop id="SvgjsStop3175" stop-color="#fbf4a1" offset="0.5"></stop>
            <stop id="SvgjsStop3176" stop-color="#8f5e25" offset="1"></stop>
        </linearGradient>
        <linearGradient id="SvgjsLinearGradient3177">
            <stop id="SvgjsStop3178" stop-color="#8f5e25" offset="0"></stop>
            <stop id="SvgjsStop3179" stop-color="#fbf4a1" offset="0.5"></stop>
            <stop id="SvgjsStop3180" stop-color="#8f5e25" offset="1"></stop>
        </linearGradient>
    </defs>
    <g id="SvgjsG3157" featurekey="rootContainer" transform="matrix(3.3451114033080604,0,0,3.3451114033080604,0,0)"
        fill="url(#SvgjsLinearGradient3165)">
        <path xmlns="http://www.w3.org/2000/svg"
            d="M4.6 5.1h98.3v24.1c.1 2.9.1 6 .2 8.1s.1 1 .1.8a61.5 61.5 0 0 0 .3-6.7v-4.2c.1-6.7 0-13.5 0-20.2V4.3H4.6V.8h102.3v24.1c.1 2.9.1 6 .2 8.1s.1 1 .1.8a61.5 61.5 0 0 0 .3-6.7v-4.2c.1-6.7 0-13.5 0-20.2V0H4v4.5H0v47.1c.1 2.7.1 5.8 0 8.7v47.6h43.5l16.7-.2h10.9a64.7 64.7 0 0 0 8.1-.3H.7V36.7C.6 31.5.6 26.3.6 21V5.1H4v42.1c-.1 2.7-.1 5.8-.1 8.8v47.6h43.6l16.7-.2h10.9a64.7 64.7 0 0 0 8.1-.3H4.7V16.7c0-5.3-.1-7.7-.1-11.6zm103 53.2v-4.7l-.2-7.8c-.1-3.2-.2-3.8-.3-3.8 0 1.9-.1 3.9-.1 5.9v17.3c0 3.1 0 6.3-.1 9.2v15.7c0 3.3 0 6.3.1 9.3v3.9l-1.9-.2h-1.7q.1-2.4.1-5.2V73.6c0-3.5.1-6.9.1-10.8v-4.7l-.2-7.8c-.1-3.2-.2-3.8-.3-3.8 0 1.9-.1 3.9-.1 5.9v17.3c0 3.1 0 6.3-.1 9.2v15.7c0 3.3 0 5.8.1 8.5H92.4c-.4.1-1.3.1-.9.1l3.5.2h8v4.2l-1.9-.2H88.4c-.4.1-1.3.1-.9.1l3.5.2h12.1c.1.3.1.1.2-1.2s.1-2 .1-3h3.7c.1.3.1.1.2-1.2s.1-5.3.2-8.7V69.3c.1-3.8.2-7.2.1-11z">
        </path>
    </g>
    <g id="SvgjsG3158" featurekey="symbolFeature-0"
        transform="matrix(0.8570788684272905,0,0,0.8570788684272905,137.39761755883052,61.764943846399056)"
        fill="url(#SvgjsLinearGradient3169)">
        <path xmlns="http://www.w3.org/2000/svg"
            d="M95.8,61.8l-6.2-1.6c-5.6-9.1-1-18.1,0-19.7l6.2-1.6c0.4-0.1,0.7-0.5,0.5-0.9c-0.1-0.4-0.5-0.7-0.9-0.5l-6.1,1.6  c-1.4-0.8-10.3-6.1-10.1-17.1l4.7-4.7c0.3-0.3,0.3-0.8,0-1.1s-0.8-0.3-1.1,0l-4.7,4.7c-0.1,0-0.2,0-0.4,0c-10.4,0-15.7-8.3-16.6-10  l1.7-6.2c0.1-0.4-0.1-0.8-0.5-0.9c-0.4-0.1-0.8,0.1-0.9,0.5l-1.6,6.1c-10,6.2-19.8,0.1-20.1-0.1l-1.6-6c-0.1-0.4-0.5-0.6-0.9-0.5  c-0.4,0.1-0.6,0.5-0.5,0.9l1.7,6.3c-1.2,2-6.5,10-16.9,9.9l-4.7-4.7c-0.3-0.3-0.8-0.3-1.1,0c-0.3,0.3-0.3,0.8,0,1.1l4.7,4.7  c0.2,10.9-8.6,16.2-10.1,17.1L4,37.3c-0.4-0.1-0.8,0.1-0.9,0.5c-0.1,0.4,0.1,0.8,0.5,0.9l6.2,1.6c5.6,9.1,1,18.1,0,19.7l-6.2,1.6  c-0.4,0.1-0.7,0.5-0.5,0.9c0.1,0.3,0.4,0.6,0.7,0.6c0.1,0,0.1,0,0.2,0l6.1-1.6c1.4,0.8,10.3,6.1,10.1,17.1l-4.7,4.7  c-0.3,0.3-0.3,0.8,0,1.1c0.1,0.1,0.3,0.2,0.5,0.2s0.4-0.1,0.5-0.2l4.7-4.7c0.1,0,0.2,0,0.4,0c10.5,0,15.7,8.3,16.6,10L36.6,96  c-0.1,0.4,0.1,0.8,0.5,0.9c0.1,0,0.1,0,0.2,0c0.3,0,0.6-0.2,0.7-0.6l1.6-6.1c10-6.2,19.8-0.1,20.1,0.1l1.6,6  c0.1,0.3,0.4,0.6,0.7,0.6c0.1,0,0.1,0,0.2,0c0.4-0.1,0.6-0.5,0.5-0.9l-1.7-6.3c1.2-2,6.5-10,16.9-9.9l4.7,4.7  c0.1,0.1,0.3,0.2,0.5,0.2s0.4-0.1,0.5-0.2c0.3-0.3,0.3-0.8,0-1.1l-4.7-4.7C79,67.8,87.8,62.4,89.3,61.6l6.1,1.6c0.1,0,0.1,0,0.2,0  c0.3,0,0.6-0.2,0.7-0.6C96.5,62.3,96.3,61.9,95.8,61.8z M87.6,59.6l-10.2-2.7c-3.4-5.9-0.9-11.6,0-13.2l10.3-2.7  C86.1,44.2,83.5,51.7,87.6,59.6z M61.3,39.8c0.4,2.9,2.2,4.8,3.4,5.7l-12.4,3.3L61.3,39.8z M51.2,47.7l3.3-12.4  c0.9,1.2,2.8,3,5.7,3.4L51.2,47.7z M49.7,47.3l-3.4-12.5c1.4,0.6,4,1.3,6.7,0.1L49.7,47.3z M48.2,47.7l-9-9c2.8-0.4,4.7-2.1,5.6-3.3  L48.2,47.7z M47.2,48.8l-12.4-3.3c1.2-0.9,3-2.8,3.4-5.7L47.2,48.8z M46.7,50.3l-12.4,3.3c0.6-1.4,1.2-3.9,0-6.6L46.7,50.3z   M47.2,51.7l-9,9C37.8,57.8,36,56,34.8,55L47.2,51.7z M48.2,52.8l-3.3,12.4c-0.9-1.2-2.8-3-5.7-3.4L48.2,52.8z M49.7,53.2l3.4,12.5  c-0.8-0.3-2.1-0.7-3.5-0.7c-1,0-2.1,0.2-3.2,0.7L49.7,53.2z M51.2,52.8l9,9c-2.8,0.4-4.7,2.1-5.6,3.3L51.2,52.8z M52.3,51.7L64.7,55  c-1.2,0.9-3,2.8-3.4,5.7L52.3,51.7z M52.7,50.3L65.1,47c-0.6,1.4-1.2,3.9,0,6.6L52.7,50.3z M65.4,45.3c-1.1-0.8-3.4-2.7-3.6-6.1  l7.4-7.4c0.4,5.8,4.3,9.3,6.4,10.7L65.4,45.3z M60.8,38.1c-3.3-0.2-5.3-2.4-6-3.6l2.7-10.2c1.5,2.1,4.9,5.9,10.7,6.4L60.8,38.1z   M53.2,34.1c-3.1,1.6-6,0.5-7.1-0.1l-2.8-10.2c2.3,1.1,7.3,2.7,12.7,0.1L53.2,34.1z M44.7,34.6c-0.8,1.2-2.7,3.3-6,3.5l-7.4-7.4  c5.7-0.4,9.1-4.1,10.6-6.3L44.7,34.6z M37.6,39.2c-0.2,3.3-2.5,5.3-3.6,6.1l-10.2-2.7c2.1-1.5,6-4.9,6.4-10.7L37.6,39.2z M33.6,46.8  c1.5,3,0.6,5.8,0,7l-10.2,2.7c1.1-2.3,2.6-7.3,0-12.4L33.6,46.8z M34,55.2c1.1,0.8,3.4,2.7,3.6,6.1l-7.4,7.4  c-0.4-5.8-4.3-9.3-6.4-10.7L34,55.2z M38.7,62.4c3.3,0.2,5.3,2.4,6,3.6L42,76.1c-1.5-2.1-4.9-5.9-10.7-6.4L38.7,62.4z M46.2,66.4  c3.1-1.6,6-0.5,7.1,0.1l2.8,10.2c-1.4-0.6-3.8-1.5-6.6-1.5c-1.9,0-3.9,0.4-6,1.4L46.2,66.4z M54.8,65.9c0.8-1.2,2.7-3.3,6-3.5  l7.4,7.4c-5.7,0.4-9.1,4.1-10.6,6.3L54.8,65.9z M61.8,61.3c0.2-3.3,2.5-5.3,3.6-6.1L75.6,58c-2.1,1.5-6,4.9-6.4,10.7L61.8,61.3z   M65.8,53.8c-1.5-3-0.6-5.8,0-7L76,44c-1.1,2.3-2.6,7.3,0,12.4L65.8,53.8z M87.3,39.4L77,42.2c-1.5-0.9-6.7-4.5-6.8-11.4l7.4-7.4  C78.2,32.3,84.3,37.5,87.3,39.4z M76.6,22.3l-7.5,7.5c-6.8,0-10.4-5.1-11.4-6.7l2.8-10.2C62.6,15.7,67.8,21.8,76.6,22.3z M59.1,12.3  l-2.7,10.2c-6.1,3.6-12.1,0.7-13.4-0.1l-2.8-10.3C43.2,13.7,51,16.6,59.1,12.3z M38.7,12.9l2.8,10.2c-1.1,1.7-4.7,6.5-11.3,6.6  l-7.4-7.4C31.5,21.8,36.7,15.9,38.7,12.9z M21.7,23.3l7.4,7.4c0,6.9-5.2,10.5-6.7,11.4l-10.3-2.7C15.1,37.5,21.2,32.3,21.7,23.3z   M11.8,40.9L22,43.7c3.4,5.9,0.9,11.6,0,13.2l-10.3,2.7C13.3,56.4,15.9,48.8,11.8,40.9z M12.1,61.1l10.3-2.7  c1.5,0.9,6.7,4.5,6.8,11.4l-7.4,7.4C21.2,68.2,15.1,63,12.1,61.1z M22.8,78.3l7.5-7.5c6.8,0,10.4,5.1,11.4,6.7l-2.8,10.2  C36.8,84.8,31.7,78.7,22.8,78.3z M49.3,86c-2.8,0-5.9,0.6-9,2.2L43.1,78c6.1-3.6,12.1-0.7,13.4,0.1l2.8,10.3  C57.4,87.4,53.7,86,49.3,86z M60.7,87.6l-2.8-10.2c1.1-1.7,4.7-6.5,11.3-6.6l7.4,7.4C67.9,78.7,62.8,84.6,60.7,87.6z M77.7,77.2  l-7.4-7.4c0-6.9,5.2-10.5,6.7-11.4l10.3,2.7C84.3,63.1,78.2,68.2,77.7,77.2z">
        </path>
    </g>
    <g id="SvgjsG3159" featurekey="nameFeature-0"
        transform="matrix(2.9806259992261452,0,0,2.9806259992261452,78.80775073732812,141.15499200619084)"
        fill="url(#SvgjsLinearGradient3173)">
        <path
            d="M0.4 40 l7.2 -28.8 l-6.4 0 l0 -3.2 l11.2 0 l-7 28 l6.2 0 l0 4 l-11.2 0 z M17.3 40 l0 -32 l3.6 0 l4.2 20 l0.4 0 l4.2 -20 l3.6 0 l0 32 l-4 0 l0 -16 l-2.84 16 l-2.4 0 l-2.76 -16 l0 16 l-4 0 z M39.8 40 l0 -32 l6.48 0 c4.12 0 5.2 2.52 5.52 8.56 l0 1.28 c-0.32 6.04 -1.4 8.56 -5.52 8.56 l-2.48 0 l0 13.6 l-4 0 z M43.8 23.2 l2.48 0 c1.2 0 1.64 -1 1.8 -5.36 l0 -1.28 c-0.16 -4.36 -0.6 -5.36 -1.8 -5.36 l-2.48 0 l0 12 z M55.49999999999999 11.600000000000001 l0 -3.6 l12 0 l0 3.6 l-4 0 l0 28.4 l-4 0 l0 -28.4 l-4 0 z">
        </path>
    </g>
    <g id="SvgjsG3160" featurekey="sloganFeature-0"
        transform="matrix(1.1851140571238954,0,0,1.1851140571238954,96.98981034011382,272.92496596081486)"
        fill="url(#SvgjsLinearGradient3177)">
        <path
            d="M2.54 18.76 l0 -10.76 c0 -0.42 0.32 -0.64 0.64 -0.64 s0.66 0.22 0.66 0.64 l0 10.06 l3.98 0 c0.44 0 0.68 0.34 0.68 0.68 s-0.24 0.66 -0.68 0.66 l-4.62 0 c-0.4 0 -0.66 -0.32 -0.66 -0.64 z M12.26 15.86 l0 -4.96 c0 -2.4 1.24 -3.68 3.64 -3.68 l0.52 0 c2.38 0 3.64 1.28 3.64 3.68 l0 4.96 c0 2.2 -1.46 3.64 -3.64 3.64 l-0.52 0 c-2.22 0 -3.64 -1.46 -3.64 -3.64 z M15.9 18.16 l0.52 0 c1.44 0 2.3 -0.9 2.3 -2.3 l0 -4.96 c0 -1.56 -0.76 -2.36 -2.3 -2.36 l-0.52 0 c-1.52 0 -2.36 0.82 -2.36 2.36 l0 4.96 c0 1.46 0.92 2.3 2.36 2.3 z M25.44 7.800000000000001 l2.62 9.02 l2.74 -8.98 c0.26 -0.86 1.48 -0.52 1.24 0.32 l-3.2 10.68 c-0.1 0.36 -0.42 0.56 -0.76 0.56 s-0.7 -0.2 -0.8 -0.56 l-3.06 -10.66 c-0.26 -0.9 1 -1.16 1.22 -0.38 z M36.36 18.7 l0 -10.64 c0 -0.46 0.36 -0.7 0.7 -0.7 l4.6 0 c0.44 0 0.66 0.32 0.66 0.66 s-0.22 0.68 -0.66 0.68 l-3.96 0 l0 3.88 l3.14 0 c0.46 0 0.68 0.32 0.68 0.66 s-0.24 0.7 -0.68 0.7 l-3.14 0 l0 4.14 l3.96 0 c0.42 0 0.64 0.34 0.64 0.66 c0 0.34 -0.22 0.66 -0.64 0.66 l-4.6 0 c-0.34 0 -0.7 -0.12 -0.7 -0.7 z M47.599999999999994 6.66 l0 0.84 c0 0.92 -1.32 0.9 -1.32 0 l0 -0.84 c0 -0.94 1.32 -0.9 1.32 0 z M51.17999999999999 17.68 c-0.44 -0.82 0.68 -1.42 1.2 -0.6 c0.26 0.42 1.04 1.14 2.28 1.14 c0.52 0 1.82 -0.38 2 -1.86 c0.12 -0.9 -0.74 -1.78 -2.22 -2.52 c-2.08 -0.98 -3.66 -1.84 -3.66 -3.56 c0 -2.04 1.72 -3 3.56 -3 c1.66 0 2.58 1.02 2.9 1.54 c0.46 0.74 -0.54 1.46 -1.1 0.74 c-0.28 -0.36 -0.82 -0.96 -1.8 -0.96 c-1.1 0 -2.24 0.52 -2.24 1.68 c0 0.92 1.02 1.44 2.54 2.16 c1.78 0.88 3.64 1.74 3.36 4.08 c-0.22 1.84 -1.62 3.02 -3.34 3.02 c-1.3 0 -2.9 -0.7 -3.48 -1.86 z M69.96 18.78 l0 -10.76 c0 -0.54 0.38 -0.66 0.66 -0.66 l3.2 0 c2.64 0 3.94 1.26 3.94 3.74 l0 5.12 c0 1.56 -1.22 3.2 -3.88 3.2 l-3.26 0 c-0.28 0 -0.66 -0.16 -0.66 -0.64 z M76.44 16.22 l0 -5.12 c0 -1.64 -0.88 -2.4 -2.62 -2.4 l-2.54 0 l0 9.42 l2.6 0 c1.22 0 2.56 -0.66 2.56 -1.9 z M83.89999999999999 15.9 l0 2.86 c0 0.44 -0.34 0.64 -0.66 0.64 c-0.34 0 -0.66 -0.2 -0.66 -0.64 l0 -10.74 c0 -0.4 0.22 -0.66 0.66 -0.66 l2.7 0 c0.76 0 3.16 0.22 3.16 2.92 l0 2.5 c0 1.52 -0.56 2.48 -1.84 2.9 l1.36 2.74 c0.28 0.54 -0.14 0.98 -0.58 0.98 c-0.24 0 -0.54 -0.16 -0.7 -0.5 l-1.46 -3 l-1.98 0 z M87.78 12.780000000000001 l0 -2.5 c0 -0.48 -0.18 -1.58 -1.84 -1.58 l-2.04 0 l0 5.86 l1.86 0 c0.98 0 2.02 -0.22 2.02 -1.78 z M93.92 18.7 l0 -10.64 c0 -0.46 0.36 -0.7 0.7 -0.7 l4.6 0 c0.44 0 0.66 0.32 0.66 0.66 s-0.22 0.68 -0.66 0.68 l-3.96 0 l0 3.88 l3.14 0 c0.46 0 0.68 0.32 0.68 0.66 s-0.24 0.7 -0.68 0.7 l-3.14 0 l0 4.14 l3.96 0 c0.42 0 0.64 0.34 0.64 0.66 c0 0.34 -0.22 0.66 -0.64 0.66 l-4.6 0 c-0.34 0 -0.7 -0.12 -0.7 -0.7 z M110.34 18.86 l-0.78 -2.54 l-3.72 0 l-0.74 2.5 c-0.26 0.86 -1.58 0.6 -1.3 -0.28 c1.04 -3.5 2.06 -7.06 3.08 -10.6 c0.12 -0.38 0.44 -0.58 0.76 -0.58 c0.3 0 0.62 0.2 0.74 0.58 l3.18 10.6 c0.22 0.76 -0.96 1.18 -1.22 0.32 z M107.67999999999999 10.06 l-1.44 4.92 l2.94 0 c-0.5 -1.68 -0.96 -3.12 -1.5 -4.92 z M124.6 18.76 l0 -8.92 l-3.18 9 c-0.18 0.5 -0.84 0.62 -1.04 0 l-3.08 -9 l0 8.92 c0 0.42 -0.32 0.64 -0.66 0.64 s-0.68 -0.22 -0.68 -0.64 l0 -10.74 c0 -0.38 0.28 -0.66 0.68 -0.66 l0.64 0 c0.44 0 0.68 0.32 0.78 0.62 c0.96 2.86 1.84 5.4 2.82 8.28 l2.9 -8.34 c0.1 -0.28 0.28 -0.56 0.7 -0.56 l0.8 0 c0.58 0 0.66 0.32 0.66 0.64 l0 10.76 c0 0.42 -0.34 0.64 -0.68 0.64 s-0.66 -0.22 -0.66 -0.64 z  M130.7 17.68 c-0.44 -0.82 0.68 -1.42 1.2 -0.6 c0.26 0.42 1.04 1.14 2.28 1.14 c0.52 0 1.82 -0.38 2 -1.86 c0.12 -0.9 -0.74 -1.78 -2.22 -2.52 c-2.08 -0.98 -3.66 -1.84 -3.66 -3.56 c0 -2.04 1.72 -3 3.56 -3 c1.66 0 2.58 1.02 2.9 1.54 c0.46 0.74 -0.54 1.46 -1.1 0.74 c-0.28 -0.36 -0.82 -0.96 -1.8 -0.96 c-1.1 0 -2.24 0.52 -2.24 1.68 c0 0.92 1.02 1.44 2.54 2.16 c1.78 0.88 3.64 1.74 3.36 4.08 c-0.22 1.84 -1.62 3.02 -3.34 3.02 c-1.3 0 -2.9 -0.7 -3.48 -1.86 z">
        </path>
    </g>
</svg>