<svg id="NcNvsSN1N" viewBox="0 0 200 175.46424553032816" height="175.46424553032816" width="200"
    style="width: 200px; height: 175.464px; position: absolute; top: 50%; left: 50%; z-index: 0; cursor: pointer; transform: translate(-50%, -50%) scale(0.718095);">
    <defs id="SvgjsDefs1786">
        <linearGradient id="SvgjsLinearGradient1793">
            <stop id="SvgjsStop1794" stop-color="#8f5e25" offset="0"></stop>
            <stop id="SvgjsStop1795" stop-color="#fbf4a1" offset="0.5"></stop>
            <stop id="SvgjsStop1796" stop-color="#8f5e25" offset="1"></stop>
        </linearGradient>
        <linearGradient id="SvgjsLinearGradient1797">
            <stop id="SvgjsStop1798" stop-color="#8f5e25" offset="0"></stop>
            <stop id="SvgjsStop1799" stop-color="#fbf4a1" offset="0.5"></stop>
            <stop id="SvgjsStop1800" stop-color="#8f5e25" offset="1"></stop>
        </linearGradient>
        <linearGradient id="SvgjsLinearGradient1801">
            <stop id="SvgjsStop1802" stop-color="#8f5e25" offset="0"></stop>
            <stop id="SvgjsStop1803" stop-color="#fbf4a1" offset="0.5"></stop>
            <stop id="SvgjsStop1804" stop-color="#8f5e25" offset="1"></stop>
        </linearGradient>
    </defs>
    <g id="SvgjsG1787" featurekey="symbolFeature-0" transform="matrix(0.3944773116181005,0,0,0.3944773116181005,60,0)"
        fill="url(#SvgjsLinearGradient1793)">
        <path xmlns="http://www.w3.org/2000/svg"
            d="M101.4,0C45.4,0,0,45.4,0,101.4c0,56,45.4,101.4,101.4,101.4c56,0,101.4-45.4,101.4-101.4C202.8,45.4,157.4,0,101.4,0z     M27.2,53.2l4.1,4.1v25.9L18.6,70.4C20.8,64.3,23.8,58.6,27.2,53.2z M101.4,189.8c-48.8,0-88.4-39.6-88.4-88.4    c0-9.1,1.4-17.9,3.9-26.1l14.5,14.5v28.5h0l-0.1,0.1l23.2,23.2c-3.6,5.2-3.1,12.4,1.5,17c5.2,5.2,13.6,5.2,18.8,0    c5.2-5.2,5.2-13.6,0-18.8c-4.6-4.6-11.8-5.1-17-1.5L36,116.5v-22l15.4,15.4c-3.6,5.2-3.1,12.4,1.5,17c5.2,5.2,13.6,5.2,18.8,0    s5.2-13.6,0-18.8c-4.6-4.6-11.8-5.1-17-1.5L36,87.9l0-32.4l0,0l-6.1-6.1c2.1-2.9,4.4-5.6,6.8-8.2L54,58.3l0,20.6h0L53.9,79l41,41    c-3.6,5.2-3.1,12.4,1.5,17c5.2,5.2,13.6,5.2,18.8,0c5.2-5.2,5.2-13.6,0-18.8c-4.6-4.6-11.8-5.1-17-1.5L58.6,77.1l0-20.6l0,0    L40,37.8c1.3-1.2,2.6-2.4,4-3.6l92.4,92.4c-3.6,5.2-3.1,12.4,1.5,17c5.3,5.3,14,5.2,19.2-0.4c4.8-5.2,4.6-13.4-0.3-18.4    c-4.6-4.7-11.9-5.2-17.1-1.5L47.6,31.2c1.4-1.1,2.9-2.2,4.5-3.2l31.7,31.7v0h0l0,0l0,0h20.5l14,14c-3.6,5.2-3.1,12.4,1.5,17    c5.2,5.2,13.6,5.2,18.8,0c5.2-5.2,5.2-13.6,0-18.8c-4.6-4.6-11.8-5.1-17-1.5l-15.4-15.4l0,0H85.7L56,25.5    c8.9-5.3,18.9-9.2,29.5-11.1l17.9,17.9c-3.6,5.2-3.1,12.4,1.5,17c5.2,5.2,13.6,5.2,18.8,0c5.2-5.2,5.2-13.6,0-18.8    c-4.6-4.6-11.8-5.1-17-1.5L91.2,13.6c3.3-0.4,6.7-0.6,10.2-0.6c48.8,0,88.4,39.6,88.4,88.4S150.2,189.8,101.4,189.8z M59.3,143    c3.4-3.4,8.9-3.4,12.3,0c3.4,3.4,3.4,8.9,0,12.3c-3.4,3.4-8.9,3.4-12.3,0C55.9,151.9,55.9,146.4,59.3,143z M56.2,111.3    c3.4-3.4,8.9-3.4,12.3,0c3.4,3.4,3.4,8.9,0,12.3c-3.4,3.4-8.9,3.4-12.3,0C52.8,120.3,52.8,114.7,56.2,111.3z M99.6,121.4    c3.4-3.4,8.9-3.4,12.3,0c3.4,3.4,3.4,8.9,0,12.3c-3.4,3.4-8.9,3.4-12.3,0C96.3,130.3,96.3,124.8,99.6,121.4z M141.1,128.1    c3.4-3.4,8.9-3.4,12.3,0c3.4,3.4,3.4,8.9,0,12.3c-3.4,3.4-8.9,3.4-12.3,0C137.7,137,137.7,131.5,141.1,128.1z M123.1,75.3    c3.4-3.4,8.9-3.4,12.3,0c3.4,3.4,3.4,8.9,0,12.3c-3.4,3.4-8.9,3.4-12.3,0C119.7,84.2,119.7,78.7,123.1,75.3z M108.1,33.7    c3.4-3.4,8.9-3.4,12.3,0c3.4,3.4,3.4,8.9,0,12.3c-3.4,3.4-8.9,3.4-12.3,0C104.7,42.7,104.7,37.1,108.1,33.7z">
        </path>
    </g>
    <g id="SvgjsG1788" featurekey="nameFeature-0"
        transform="matrix(1.5550648521079604,0,0,1.5550648521079604,-0.9330389483404115,84.82257113657644)"
        fill="url(#SvgjsLinearGradient1797)">
        <path
            d="M0.6 39.16 c0 0 0.08 -0.12 0.08 -0.16 c0.08 0 0.12 -0.72 1.28 -2.36 c0 -0.4 0.92 -0.96 0.96 -1.6 c0.12 0 0.4 -0.92 0.52 -0.92 c0.2 -1.4 1 -0.76 1.48 -2.68 c0.24 0 0.24 -0.52 1.08 -1.68 c0 -0.08 0.6 -0.72 0.72 -1.36 c0 -0.28 0.96 -1.2 1.08 -1.6 c0 -0.4 0.96 -1.08 0.96 -1.6 c0.44 -0.84 0.52 -1 0.52 -1 l-0.04 0.04 s0.16 -0.24 0.92 -1.56 c-0.04 0 -0.08 -0.04 -0.08 -0.04 c0 -0.16 0.72 -0.44 0.72 -1 c0.12 -0.92 0.64 -0.6 1.24 -2.12 l-0.04 0.04 c0 -0.04 0.68 -0.64 0.68 -1.04 c0 -0.04 -0.04 -0.08 -0.04 -0.12 c0 -0.12 0.64 -0.72 0.64 -0.92 c0.36 -0.92 0.32 -0.12 1.2 -2.08 l-0.04 0 c0 -0.08 0.72 -0.44 0.72 -0.88 c-0.04 0 -0.04 -0.04 -0.04 -0.08 c0 -0.36 0.88 -1.2 0.88 -1.4 c0.56 -1 0.44 -0.84 0.64 -1.24 c0 0 -0.12 -0.32 -0.2 -0.56 l-1.04 0 c-0.04 -0.08 -0.16 -0.16 -0.16 -0.16 c-0.04 0 -0.2 0.16 -0.56 0.16 c-0.52 0 -0.52 -0.16 -0.76 -0.16 c-0.32 0 -0.16 0 -0.88 0.28 c-0.16 0 -0.48 -0.28 -0.44 -0.28 c-0.12 0 -0.68 0.32 -1.04 0.32 c-0.08 0 -0.12 -0.04 -0.2 -0.12 l-1.04 0 c-1.28 0.36 -1.44 0.48 -2.04 0.56 c-0.04 0 -0.04 -0.04 -0.08 -0.04 c-0.2 0 -0.44 0.84 -1.16 0.84 c-1.72 1.6 -1.96 2.04 -1.92 2.44 l0 -0.04 c-0.08 0 -0.32 0.28 -1.16 1.92 c-0.04 0 -0.28 1.4 -1.04 1.4 c-0.64 0 -1 0 -1 -0.44 l0.04 -1.04 c0 -0.16 0.2 -2 0.2 -3.16 c0 -0.76 -0.04 -1.36 -0.04 -1.88 c0 -1.04 0.12 -1.56 0.68 -1.8 l3.76 -0.04 c0 -0.04 0.2 -0.24 0.36 -0.24 c-0.04 0 -0.04 0 -0.04 0.04 s0.16 0.16 1.32 0.16 l0 0.08 l6.6 0 c0.32 0 1.28 0.08 1.24 0.08 c0.28 0 0.88 0.08 1.04 -0.08 c0.28 0 0.36 0.12 0.64 0.12 c0.08 0 0.12 -0.04 0.28 -0.12 l1.36 0 l0.12 0.08 l1.72 0 c0.16 -0.04 0.56 -0.16 0.6 -0.16 l0 0.04 c0.6 0 1.84 -0.12 1.84 0.68 c0 1.16 -0.44 0.92 -0.44 1.4 c0 0.24 -0.24 0.16 -0.96 1.64 c-0.2 0 -1.48 1.96 -1.48 2.36 c-0.44 0.92 -0.52 0.36 -1.2 2.12 c0 0 0.04 0 0.04 0.04 c0 0.08 -0.56 0.32 -0.56 0.76 c-0.4 0.88 0.08 -0.16 -0.96 1.64 l0.04 0.04 c0 0.12 -0.96 0.68 -0.96 1.36 c-0.04 0.2 -0.36 0.8 -0.72 1.24 c0 0.76 -0.6 0.16 -0.96 1.92 c0 0.04 -0.8 0.84 -0.96 1.48 l0.04 0 c0 0.12 -0.88 0.96 -0.88 1.32 c0 0.32 -0.44 0.56 -0.44 0.68 c0 0 -1.12 2.16 -1.36 2.16 c0 0 0.04 0 0.04 0.04 c0 0.6 -1.12 1.28 -1.12 1.92 c0 0.04 -0.72 0.68 -0.72 1.24 c-1.08 1.32 -0.76 1.64 -1.24 2.12 c-0.44 0.72 -0.56 0.68 -0.72 1.16 c0.04 0.04 0.04 0.04 0.04 0.08 c0 0.16 -0.52 0.6 -0.52 0.96 c0.04 0.08 0.28 0.44 0.32 0.4 l5.4 0 c0.4 0 1.16 -0.08 1.48 -0.24 l-0.04 0 s1.96 -0.16 2.28 -0.56 c0.08 0 0.32 -0.28 0.4 -0.28 l-0.04 0 c0 -0.04 0.72 -0.28 0.88 -0.44 c0.32 0 0 0 1.48 -1.48 c0 -0.36 0.56 -0.44 0.8 -0.96 c-0.04 0 -0.08 -0.04 -0.08 -0.04 c0 -0.16 0.48 -0.48 0.96 -1.64 c0.28 0 0.24 -0.8 0.6 -1.04 l0 0.08 s0.16 -2.04 1.2 -2.04 c0.64 0 0.68 0.64 0.68 1.36 c0 0.52 -0.12 2.68 -0.12 3.6 c0 0.2 0 0.32 0.04 0.36 c0 0.04 -0.08 2.24 -0.08 3.28 c0 1.12 -0.4 1.12 -0.76 1.28 c-1.52 0 -3.16 -0.04 -3.96 -0.12 c-0.04 0 -0.32 0.04 -0.44 0.04 c-0.72 0 -0.56 -0.04 -0.76 -0.04 c-0.96 0 -1.56 0.12 -2.12 0.12 c-0.32 0 -0.56 0 -0.6 -0.16 c-0.08 0 -0.48 0.12 -0.52 0.12 c-0.28 0 -0.24 -0.36 -0.32 -0.36 c-0.36 0 -0.76 0.28 -0.88 0.4 c-0.16 -0.04 -0.8 -0.16 -1 -0.24 c-0.44 0 -0.36 0.28 -0.56 0.28 c-0.12 0 -0.36 -0.04 -0.44 -0.12 l0 -0.16 l-0.52 0 c0 0.08 -0.04 0.16 0.04 0.16 l-0.64 0 c-0.08 0 0.04 -0.08 -0.24 -0.24 c-0.12 0.04 -0.2 0.12 -0.2 0.2 c-0.4 0 -0.32 0 -0.44 -0.04 l0.04 -0.08 l-0.56 0 l0.08 0.16 l-0.16 0.08 l-1.4 0 c-0.12 0.08 -0.24 0.08 -0.32 0.08 c-0.24 0 -0.4 -0.08 -0.64 -0.08 c-0.08 0 -0.8 0.08 -0.84 0.08 c-0.04 0.04 -0.04 0.04 -0.08 0.04 c-0.16 0 -0.48 -0.2 -2.04 -0.2 c-0.52 0 -1.28 0.16 -1.72 0.16 c-1 0 -1.2 -0.24 -1.2 -0.92 z M10.72 39.84 c-0.04 0 -0.08 0 -0.08 0.04 c0 0 0.04 0.04 0.08 0.04 s0.04 -0.04 0.04 -0.04 c0 -0.04 0 -0.04 -0.04 -0.04 z M1.64 39.68 c-0.08 0.04 -0.08 0.08 -0.08 0.16 l0.2 0 z M2.32 39.84 l-0.04 -0.08 z M3.44 39.76 c0 -0.04 -0.08 -0.04 -0.08 -0.04 c-0.08 0 -0.12 0 -0.12 0.04 s0.04 0.08 0.12 0.08 c0 0 0.08 -0.04 0.08 -0.08 z M3.56 39.6 c-0.04 0 -0.04 0.04 -0.04 0.08 s0 0.08 0.04 0.08 s0.04 -0.04 0.04 -0.08 s0 -0.08 -0.04 -0.08 z M10.8 39.76 c0 -0.04 -0.04 -0.04 -0.04 -0.04 c-0.04 0 -0.04 0 -0.04 0.04 s0 0.08 0.04 0.08 c0 0 0.04 -0.04 0.04 -0.08 z M12.92 39.76 c0 -0.04 -0.04 -0.04 -0.08 -0.04 s-0.08 0 -0.08 0.04 s0.04 0.08 0.08 0.08 s0.08 -0.04 0.08 -0.08 z M19.16 39.68 c0.08 0.08 0.16 0.08 0.32 0.08 l0 -0.08 l-0.32 0 z M1.32 39.12 c-0.08 0.04 0.04 0.04 0.12 0.16 c0 0 -0.08 -0.16 -0.12 -0.16 z M1 38.92 c0.04 0.08 0.16 0.12 0.24 0.12 c0.04 -0.12 0.08 -0.24 0.12 -0.32 c0 0 0 -0.08 -0.04 -0.12 z M5.16 38.92 c0 0 -0.04 0.04 -0.04 0.08 l0.04 0.04 c0.04 0 0.04 -0.04 0.04 -0.04 c0 -0.04 0 -0.08 -0.04 -0.08 z M3.56 35.04 l0 0.08 l0.08 0 l0 -0.08 l-0.08 0 z M23.6 30.759999999999998 c0 -0.04 -0.04 -0.04 -0.04 -0.04 c-0.04 0 -0.04 0 -0.04 0.04 s0 0.04 0.04 0.04 c0 0 0.04 0 0.04 -0.04 z M8.36 26.52 c0 0.12 0.12 0.08 0.08 0.08 l0 -0.16 c-0.04 0 -0.08 0 -0.08 0.08 z M2.48 18.04 l0 0.08 l0.08 0 z M2.24 17.72 c-0.04 0 -0.08 0.04 -0.08 0.08 s0.04 0.08 0.08 0.08 s0.04 -0.04 0.04 -0.08 s0 -0.08 -0.04 -0.08 z M3.44 17.36 c-0.04 0 -0.08 0.04 -0.08 0.08 c0 0 0.04 0.04 0.08 0.04 s0.04 -0.04 0.04 -0.04 c0 -0.04 0 -0.08 -0.04 -0.08 z M2.32 17.2 c-0.04 0 -0.04 0.04 -0.04 0.08 s0 0.08 0.04 0.08 s0.04 -0.04 0.04 -0.08 s0 -0.08 -0.04 -0.08 z M3.44 17.2 c-0.04 0 -0.08 0.04 -0.08 0.08 s0.04 0.08 0.08 0.08 s0.04 -0.04 0.04 -0.08 s0 -0.08 -0.04 -0.08 z M3.72 16.56 c-0.08 0.08 -0.12 0.12 -0.16 0.2 l0.2 0 c0 -0.08 0 -0.16 -0.04 -0.2 z M2.6 11.399999999999999 c0 0.12 0 0.2 -0.04 0.28 l0.08 0 z M17.68 11.280000000000001 c-0.04 0 -0.08 0.08 -0.08 0.12 s0.04 0.08 0.08 0.08 s0.04 -0.04 0.04 -0.08 s0 -0.12 -0.04 -0.12 z M2.56 11.280000000000001 c-0.04 0 -0.08 0.04 -0.08 0.08 s0.04 0.04 0.08 0.04 c0 0 0.04 0 0.04 -0.04 s-0.04 -0.08 -0.04 -0.08 z M2.72 11.16 c-0.08 0 -0.08 0.04 -0.12 0.08 c-0.04 -0.04 0.04 0.08 0.12 -0.08 z M18.4 11.04 l0.08 0.04 l-0.04 0 s0.04 0 0.12 -0.04 l-0.16 0 z M2.56 10.600000000000001 l0 0.36 l0.04 -0.36 l-0.04 0 z M17.6 10.760000000000002 c0 0.08 0.08 0.2 0.08 0.2 c0.08 0 0.08 -0.16 0.12 -0.28 c-0.12 0 -0.12 0 -0.2 0.08 z M5.84 10.68 c0.08 0.04 -0.12 0.24 0.4 0.24 c-0.04 -0.2 -0.12 -0.32 -0.24 -0.32 c-0.08 0 -0.16 0.04 -0.16 0.08 z M13.08 10.68 c0.12 0.12 0.24 0.2 0.36 0.24 c0.04 0 0.08 0 0.12 -0.08 c-0.16 -0.16 -0.16 -0.16 -0.48 -0.16 z M22.4 10.600000000000001 c0.04 0.32 0.04 0.32 0.2 0.32 c0.04 0 0.04 0 0.04 -0.08 c0 -0.16 -0.12 -0.24 -0.2 -0.32 z M11.28 10.64 c0 0.28 0.4 0.08 0.4 0.2 l-0.08 0 s0.08 0.04 0.16 0.04 s0.24 -0.04 0.24 -0.24 c0 -0.08 -0.08 -0.2 -0.12 -0.2 c-0.24 0.04 -0.44 0.16 -0.6 0.2 z M2.64 10.36 c0 0 -0.04 0.04 -0.04 0.08 s0.04 0.08 0.04 0.08 c0.04 0 0.04 -0.04 0.04 -0.08 s0 -0.08 -0.04 -0.08 z M31.604 39.84 c-0.08 0 -0.12 0.04 -0.16 0.04 l0.16 0.16 c-0.04 0 -0.16 0.12 -0.44 0.12 c-0.32 0 -0.56 -0.44 -0.56 -0.64 c0 -0.4 0.12 -0.52 1.8 -0.52 c0.76 0 2.08 -0.04 2.24 -0.32 c0 0 0.16 -1.2 0.24 -1.32 c0 0 -0.08 -1.68 -0.08 -1.84 c0 -0.04 0.08 -0.32 0.08 -0.44 c0 -0.08 0 -0.16 -0.08 -0.32 l0 -5.04 l0.08 -0.12 c0 -1.2 -0.16 -2.08 -0.16 -3.16 c0 -1 0.08 -1.6 0.08 -2.32 l0 -12.48 c-0.12 -0.12 -0.28 -0.56 -0.4 -0.56 c0.04 0 -1.4 0.16 -2.64 0.16 c-0.32 0 -1.2 0 -1.2 -0.4 l0 -0.64 c-0.04 -0.04 0.28 -0.24 0.88 -0.24 l9.4 0 c0.36 0 0.56 0.04 0.8 0.32 c-0.04 0.04 -0.04 0.08 -0.04 0.12 c0 0.28 0.4 0.52 0.4 1.08 c-0.04 0 -0.04 -0.04 -0.04 -0.04 c-0.04 0 -0.04 0.04 -0.04 0.04 c0 0.24 0.92 1.92 0.92 2.96 c0 0.8 0.52 1.24 0.52 1.88 c-0.04 0.04 -0.04 0.04 -0.04 0.08 c0 0.16 0.52 0.6 0.52 1.52 c-0.04 0.04 -0.04 0.04 -0.04 0.08 c0 0.08 0.32 0.2 0.32 0.92 c0 0.04 -0.04 0.04 -0.04 0.08 c0 0.16 0.36 0.24 0.36 1.08 c0.16 1.76 0.6 1.6 0.6 1.84 c0.04 1.2 0.84 1.52 0.84 3.04 c0 0.56 0.68 1.56 0.68 2.32 c0.44 0.76 -0.12 0.48 0.88 2.4 l0.4 0 c0.16 -1 0.92 -2 0.92 -2.76 c0.12 -2.12 0.96 -1.92 0.96 -3.44 l0 -0.04 c0 -0.2 0.6 -1.24 0.6 -1.96 c0 -1.04 0.44 -1.2 0.44 -1.68 l-0.08 0 c0 -0.04 0.4 -0.2 0.4 -0.88 c0.16 -3.16 1.24 -2.4 1.24 -4.16 c0.4 -3.96 1.28 -2.44 1.28 -4.48 c-0.04 0 -0.04 0 -0.04 -0.04 c0 -0.08 0.64 -0.36 1.52 -0.36 c0.2 0 1.8 0.08 2 0.08 c0.24 0 3.52 -0.08 5.64 -0.08 c0.76 0 1.56 0.32 1.52 0.32 l0 0.56 l-0.08 0.08 c-0.08 0 -0.32 0.24 -0.4 0.24 l-0.08 0.08 c-1.08 0 -1.92 -0.16 -2.48 -0.16 c-0.24 0 -0.6 -0.04 -0.84 0.64 l0 14.28 c0 0.08 0.08 0.52 0.08 0.64 c0 0.08 -0.08 0.72 -0.08 0.76 s-0.04 0.04 -0.04 0.08 s0.04 0.12 0.12 0.24 c0 7.24 -0.16 5.36 -0.16 8.88 c0 1.2 0.2 2.4 1.16 2.4 c0.2 0 0.44 -0.12 0.6 -0.12 l0.96 0 l0.04 0.04 c0.4 0 0.16 -0.04 0.68 -0.04 c0.48 0 0.6 0.56 0.6 0.64 c0 0.2 -0.08 0.44 -0.36 0.44 c-0.32 0 -0.36 0.08 -0.36 0.08 c-0.16 0 -1.04 -0.08 -1.16 -0.08 c-1.92 0 -2.72 0.12 -4 0.12 c-0.36 0 -0.88 -0.12 -1.36 -0.12 c-1 0 -1.08 0.08 -1.48 0.08 c-0.8 0 -2.04 -0.12 -2.12 -0.12 c0 0.12 -1.52 0.12 -1.68 0.12 c-0.64 0 -0.64 -0.04 -0.84 -0.12 l0.12 -0.08 c0 -0.08 -0.08 -0.24 -0.12 -0.36 c-0.08 0.04 -0.08 0.12 -0.08 0.2 l0 0.16 c-0.16 0 -0.24 0 -0.24 -0.04 l0 -0.56 c0.32 -0.12 0.6 -0.32 0.72 -0.36 l1.52 0 c0.08 0.04 0 0.04 0.28 0.04 c0.04 0 0.08 0 0.08 -0.08 l0.8 0 c0 0.04 0.04 0.04 0.08 0.04 c0.2 0 0.52 -1 0.52 -3.4 c0 -3.12 -0.08 -3.96 -0.08 -5.6 c0 -0.04 0 -0.08 0.08 -0.2 c0 0.12 -0.2 -6.96 -0.2 -9.2 c-0.04 0.04 -0.04 0.08 -0.04 0.08 l0 0 s0.2 -1.76 0.2 -4.4 c0 -1.2 -0.08 -2.24 -0.48 -2.24 c0 -0.04 0.04 -0.04 0.04 -0.04 c-0.6 0 -0.56 2.08 -1.28 3.4 c0.04 0 0.04 0.04 0.04 0.08 c0 0.2 -0.44 0.76 -0.44 1.2 c0 0.04 0.04 0.08 0.04 0.12 c-0.12 -0.04 -0.08 0.72 -0.4 1.04 c0 2.08 -1.08 2.28 -1.08 3.84 c-0.28 1.2 -0.6 0.92 -0.6 2.04 c-0.08 0.84 -1.04 2.36 -1.04 2.96 c0 1.28 -0.48 0.6 -0.48 1.88 l0.04 0 c0 0.12 -0.56 0.92 -0.56 1.76 c0 2 -1.36 2.72 -1.36 4.28 c0 1.04 -0.64 1.64 -0.64 2.2 c0 0.08 -0.08 1.52 -1 1.52 c-0.84 0 -1.48 -1.84 -1.48 -2.8 c-0.32 -1.4 -0.44 -1.76 -1.08 -3.64 c-0.28 -1.36 -0.84 -1.8 -0.84 -2.52 c0 -0.56 -0.6 -1.28 -0.6 -1.8 c-0.08 -1.12 -0.12 0.08 -1.12 -3.88 c0 0 -0.24 -1.16 -0.4 -1.28 l0 -0.28 s0 -0.08 0.04 -0.12 c0.04 0.04 0.16 0.08 0.2 0.08 s0.04 0 0.04 -0.04 s-0.04 -0.12 -0.08 -0.16 c-0.08 0 -0.16 0 -0.24 0.04 c-0.12 -0.08 -0.56 -0.96 -0.56 -1.52 c-0.08 -1.48 -0.92 -2.88 -1.32 -4.28 l0 0.04 c-0.08 0 -0.92 -4.44 -1.44 -4.44 c-0.4 0 -0.32 0.04 -0.36 0.16 l0 3.44 c0 0.08 0.04 0.32 0.04 0.4 c0 0.32 -0.16 0.28 -0.16 0.44 c0 0.12 0.12 0.4 0.12 1.2 l-0.04 0.04 s0.04 0 0.04 0.08 c0 0.04 0 0.12 -0.08 0.28 c0 -0.04 0.08 1.48 0.08 1.64 c0 0.36 -0.08 1.36 -0.08 2.72 c0 0.72 0.08 3.2 0.08 3.36 c0 0.04 -0.04 0.12 -0.08 0.2 c0.08 0.24 0.08 0.36 0.08 0.72 c0 0.28 0 0.6 -0.08 0.6 c0 0.08 0.04 0.16 0.08 0.24 c0 1.24 -0.12 2 -0.12 2.44 c0 0.48 0.12 1.8 0.12 1.8 c0 0.96 -0.12 1.8 -0.12 3.28 c0 1.2 0.16 2.44 1.12 2.44 c1.24 0 2.04 -0.12 2.04 -0.2 c0.8 0 1.08 0.36 1.08 0.76 c0 0.12 -0.16 0.52 -0.76 0.52 c-0.4 0 -0.36 -0.08 -0.56 -0.24 c-0.12 0 -0.24 0.12 -0.36 0.12 s-0.12 -0.12 -0.2 -0.2 c-0.28 0.2 -0.2 0.32 -0.44 0.32 l0 -0.2 c-0.24 0 0 0.16 -0.88 0.16 c-0.04 0 -0.16 -0.04 -0.24 -0.08 c-0.04 0 -1.2 0.12 -2.04 0.12 l-0.2 -0.04 c0.24 -0.12 0.56 -0.12 0.64 -0.2 c-0.48 0 -0.8 0.04 -1.28 0.04 c0.04 0.08 0.32 0.16 0.52 0.16 l-0.2 0 c-0.2 0 -0.44 0.04 -0.56 0.2 l-0.16 -0.08 l-0.72 0 l-0.04 0.08 l-0.56 0 c-0.16 -0.12 -0.44 -0.16 -0.56 -0.2 c0 -0.2 -0.08 -0.2 -0.08 -0.2 z M31.924 39.96 c-0.04 0 -0.08 0.04 -0.08 0.04 c0 0.04 0.04 0.04 0.08 0.04 c0 0 0.04 0 0.04 -0.04 z M39.284 39.88 l0.08 0.08 l0.16 -0.08 l-0.24 0 z M33.444 39.84 l0 0.04 l0.04 -0.04 l-0.04 0 z M36.484 39.88 l0.04 0 l-0.04 0 z M36.724000000000004 39.76 c-0.04 0 -0.04 0.04 -0.04 0.08 s0 0.04 0.04 0.04 s0.04 0 0.04 -0.04 s0 -0.08 -0.04 -0.08 z M31.444 39.16 c-0.52 0 -0.56 0.2 -0.56 0.4 l0 0.2 c0.28 -0.12 0.2 -0.4 0.4 -0.44 l0.48 0 l0 -0.08 c-0.04 0 -0.28 -0.08 -0.32 -0.08 z M32.484 39.56 l-0.08 0.08 l0.08 0 l0 -0.08 z M63.524 39.16 l0.44 0.48 c0.04 -0.2 0.04 -0.32 0.08 -0.32 l0 0.2 l-0.08 0.12 c0 -0.4 -0.52 -0.36 -0.52 -0.4 s0 -0.04 0.08 -0.08 z M39.844 39.16 c-0.2 0.04 -0.24 0.08 -0.24 0.24 l0.32 -0.08 c0 -0.08 -0.04 -0.16 -0.08 -0.16 z M45.484 39.08 c0.04 0.08 0.2 0.2 0.32 0.32 c0.08 -0.04 0.12 -0.24 0.16 -0.24 c0 -0.08 -0.12 -0.08 -0.28 -0.08 l-0.2 0 z M62.484 39.24 l0.12 0.16 l0.12 -0.16 l-0.24 0 z M46.004000000000005 38.84 c-0.04 0 -0.04 0.04 -0.04 0.08 s0 0.08 0.04 0.08 s0.04 -0.04 0.04 -0.08 s0 -0.08 -0.04 -0.08 z M35.204 33.519999999999996 l0 0.08 l0.04 0 z M40.204 24.32 l0 0.08 l0.08 0 l0 -0.08 l-0.08 0 z M40.164 24 c-0.04 0 -0.08 0.04 -0.08 0.04 c0 0.04 0.04 0.08 0.08 0.08 c0 0 0.04 -0.04 0.04 -0.08 z M35.844 19.56 c-0.04 0 -0.08 0.04 -0.08 0.08 c0 0 0.04 0.04 0.08 0.04 l0.04 -0.04 c0 -0.04 -0.04 -0.08 -0.04 -0.08 z M59.444 16.32 c0 0.12 0 0.16 0.16 0.16 c-0.08 -0.08 -0.12 -0.16 -0.16 -0.16 l0 0 z M60.044 16.32 c-0.08 0.04 -0.12 0.08 -0.12 0.12 s0 0.04 0.04 0.04 s0.04 -0.08 0.08 -0.16 z M53.084 13.84 c-0.04 0 -0.08 0 -0.08 0.04 l0.08 0 l0.04 0 c0 -0.04 0 -0.04 -0.04 -0.04 z M53.804 11.32 c0.04 0.08 0.08 0.12 0.12 0.16 c0.04 0 0.12 0.04 0.12 -0.16 c0 -0.12 0 -0.24 -0.08 -0.24 c-0.12 0 -0.12 0.24 -0.16 0.24 z M31.444 10.84 c0 0.16 0.08 0.2 0.2 0.24 l0.04 -0.08 c-0.04 -0.08 -0.12 -0.12 -0.24 -0.16 z M31.004 10.760000000000002 c-0.04 0 -0.08 0.04 -0.08 0.04 c0 0.04 0.04 0.04 0.08 0.04 c0 0 0.04 0 0.04 -0.04 z M62.604 10.68 l0 0.04 l0.08 0 z M30.924 10.52 l0.08 0.16 s0.24 -0.32 0.28 -0.48 c-0.2 0 -0.36 0.04 -0.36 0.32 z M31.444 10.399999999999999 c-0.04 0 -0.08 0.04 -0.08 0.08 c0 0 0.04 0.04 0.08 0.04 s0.04 -0.04 0.04 -0.04 c0 -0.04 0 -0.08 -0.04 -0.08 z M33.004 10.399999999999999 l0 0.08 l0.08 -0.08 l-0.08 0 z M60.564 10.399999999999999 c-0.04 0 -0.08 0.04 -0.08 0.08 c0 0 0.04 0.04 0.08 0.04 l0.04 -0.04 c0 -0.04 -0.04 -0.08 -0.04 -0.08 z M62.684 10.399999999999999 c-0.04 0 -0.08 0.04 -0.08 0.08 c0 0 0.04 0.04 0.08 0.04 l0.04 -0.04 c0 -0.04 -0.04 -0.08 -0.04 -0.08 z M55.204 10.280000000000001 l0.08 0.12 c0.12 0 0.12 -0.04 0.12 -0.08 c0 0 0 -0.04 -0.04 -0.12 c-0.12 0 -0.12 0.04 -0.16 0.08 z M56.123999999999995 10.2 l0 0.2 l0.12 0 l0 -0.2 l-0.12 0 z M60.484 10.399999999999999 c0 -0.04 -0.04 -0.04 -0.04 -0.04 l0 0.12 s0.04 -0.04 0.04 -0.08 z M60.684 10.280000000000001 l-0.08 0.08 l0.08 0 l0 -0.08 z M61.164 10.280000000000001 c-0.04 0 -0.08 0.04 -0.08 0.08 c0 0 0.04 0.04 0.08 0.04 l0 -0.12 z M63.364 10.2 l0 0.16 l0.08 0 l0 -0.16 l-0.08 0 z M62.884 10.2 l-0.04 -0.04 c-0.04 0 -0.04 0.04 -0.04 0.04 c0 0.04 0 0.08 0.04 0.08 c0 0 0.04 -0.04 0.04 -0.08 z M70.768 39.52 c0 -0.8 0.2 -0.56 0.52 -0.8 l3 0 c0.08 0 0.4 -0.32 0.4 -0.64 l0 -4.44 c0 -0.12 0.04 -0.28 0.04 -0.44 c0 0 -0.04 -0.32 -0.04 -0.36 c0 -0.68 0 -0.88 0.04 -1.08 c0 -3.72 -0.08 -12.44 -0.08 -20.24 c0 -0.28 -0.44 -0.28 -0.84 -0.56 c-0.12 0 -0.6 0.28 -0.88 0.28 l-1.84 0 c-0.16 -0.2 -0.48 -0.36 -0.48 -0.92 c0 -0.2 0.2 -0.56 1.56 -0.56 c1.6 0 4.56 0.12 5.24 0.12 c2.76 0 6.24 -0.08 7.68 -0.08 c4.24 0 5.4 0.88 6.36 1.08 l0.04 -0.04 c0.16 0 0.48 0.64 1.56 0.92 c0.28 0 1.4 1.28 1.52 1.32 c0 0.48 1.68 1.4 1.68 5.04 c0 1.72 -0.44 1.72 -0.48 2.32 l0 -0.04 c-0.08 0 -0.36 0.88 -0.56 0.88 c0 0 -0.36 0.92 -0.64 1.12 c-1.56 1.52 -1.2 0.8 -2.96 2.28 c-0.84 0 -0.56 0.72 -1.6 0.72 c-2.84 0.12 -2.04 0.6 -3.8 0.6 c-2 0.2 -2.68 0.36 -5.36 0.36 c0 0.04 -0.32 0.04 -0.32 0.84 l0.08 5.08 l-0.08 0.16 l0 0.6 c0 0.32 0 0.6 0.08 0.68 c0 0 -0.12 0.16 -0.12 2.44 c0 1.24 0.12 2.64 0.92 2.64 c0.44 0 0.72 -0.08 1 -0.08 c2.84 0 2.28 0.12 2.6 0.72 c-0.24 0.2 -0.08 0.52 -0.48 0.52 l-1 0 c-0.08 -0.28 -0.28 -0.28 -0.48 -0.4 c-0.08 0.04 -0.16 0.04 -0.16 0.12 l0.4 0.2 l-0.08 0.08 l-1.24 0 l-0.2 -0.08 c-0.12 0 -0.48 0.08 -0.64 0.08 l-4.56 0 c-0.08 0 -0.52 0.08 -0.64 0.08 c-0.64 0 -2.32 -0.04 -2.36 -0.16 l0 -0.04 c-0.12 0 -0.68 0.2 -1.6 0.2 c-1.08 0 -1.24 -0.24 -1.24 -0.4 c0 -0.08 0.04 -0.12 0.04 -0.12 z M73.088 39.68 c0.04 0.08 0.12 0.2 0.16 0.2 s0.12 -0.04 0.32 -0.12 c0 0 -0.16 -0.12 -0.24 -0.12 c-0.2 0 -0.16 0 -0.24 0.04 z M72.488 39.76 l0 -0.04 c-0.04 0 -0.04 0 -0.04 0.04 s0 0.08 0.04 0.08 l0 -0.08 z M74.288 39.76 c0 -0.04 -0.04 -0.04 -0.16 -0.04 c-0.08 0 -0.16 0 -0.16 0.04 s0.08 0.08 0.16 0.08 s0.16 -0.04 0.16 -0.08 z M76.568 39.68 c-0.04 0 -0.08 0.04 -0.08 0.08 s0.04 0.08 0.08 0.08 c0 0 0.04 -0.04 0.04 -0.08 s-0.04 -0.08 -0.04 -0.08 z M81.88799999999999 39.68 c-0.04 -0.04 -0.04 0.04 -0.04 0.08 c0 0 0.04 -0.04 0.04 -0.08 z M71.60799999999999 39.56 c-0.04 0 -0.08 0.04 -0.08 0.08 s0.04 0.04 0.08 0.04 s0.04 0 0.04 -0.04 s0 -0.08 -0.04 -0.08 z M71.52799999999999 39.52 c-0.04 0 -0.08 0.04 -0.08 0.08 c0 0 0.04 0.04 0.08 0.04 s0.04 -0.04 0.04 -0.04 c0 -0.04 0 -0.08 -0.04 -0.08 z M83.60799999999999 39.04 c0 0.2 0.2 0.36 0.48 0.48 c0.56 0 0.56 -0.16 0.64 -0.24 c-0.04 -0.32 -0.2 -0.32 -0.32 -0.32 c-0.04 0 -0.08 0.16 -0.12 0.24 c-0.4 0 -0.4 -0.24 -0.64 -0.24 c-0.04 0 -0.04 0.04 -0.04 0.08 z M71.768 39.04 c0 -0.04 0 -0.04 -0.04 -0.04 c0 0 -0.04 0 -0.04 0.04 s0.04 0.08 0.04 0.08 c0.04 0 0.04 -0.04 0.04 -0.08 z M75.448 38.96 c-0.04 0 -0.08 0.04 -0.08 0.08 s0.04 0.08 0.08 0.08 s0.04 -0.04 0.04 -0.08 s0 -0.08 -0.04 -0.08 z M75.208 38.88 c-0.04 0 -0.08 0.04 -0.08 0.08 l0.08 0 l0.04 0 c0 -0.04 0 -0.08 -0.04 -0.08 z M80.488 21.08 c0 2.64 -0.08 4.12 0.52 4.24 l1.56 0 c0.04 0 0.16 -0.04 0.24 -0.04 c1.28 -0.32 1.68 -0.16 2.6 -0.44 c1.8 0 1.88 -0.76 2.44 -0.92 c0.28 0 0.96 -1.16 1.16 -1.36 l-0.04 0 c0 -0.08 0.44 -0.52 0.44 -1 c0 -0.88 0.4 -0.48 0.4 -2.44 c0 -2.12 -0.32 -4.28 -0.32 -5 c0.04 -0.04 0.04 -0.08 0.04 -0.12 c0 -0.2 -0.48 -0.44 -0.48 -0.72 c0 -0.04 0.04 -0.08 0.04 -0.12 c0 -1.44 -3.48 -2 -4.04 -2 c-0.52 0 -1.24 0.04 -2.32 0.04 c-0.12 -0.08 -0.24 -0.08 -0.36 -0.08 c-0.4 0 -0.84 0.08 -1.24 0.08 l-0.16 0 c-0.16 0 -0.4 0.12 -0.48 0.92 l0 2.2 s-0.08 0.16 -0.08 0.2 c0.12 0.68 0.12 1.6 0.12 2.56 c0 0.56 -0.04 3.96 -0.04 4 z M75.008 23.72 c0 0.08 0 0.12 0.04 0.12 z M88.008 10.879999999999999 c-0.04 0 -0.04 0.04 -0.04 0.08 s0 0.08 0.04 0.08 s0.04 -0.04 0.04 -0.08 s0 -0.08 -0.04 -0.08 z M72.448 10.719999999999999 c-0.08 0 -0.28 0.08 -0.28 0.16 l0.04 0 s0.12 0 0.12 0.04 c0.04 0 0.12 -0.04 0.12 -0.2 z M72.88799999999999 10.8 c-0.04 0 -0.04 0.04 -0.04 0.08 l0.08 0 c0 -0.04 -0.04 -0.08 -0.04 -0.08 z M73.80799999999999 10.879999999999999 c0 -0.04 -0.08 -0.04 -0.12 -0.04 c-0.08 0 -0.12 0 -0.12 0.04 c-0.04 0 0.2 0 0.24 0 z M87.848 10.719999999999999 l0.04 0.16 s0.08 0 0.12 -0.16 l-0.16 0 z M87.768 10.559999999999999 c-0.04 0 -0.08 0.04 -0.08 0.08 s0.04 0.08 0.08 0.08 s0.04 -0.04 0.04 -0.08 s0 -0.08 -0.04 -0.08 z M71.288 10.16 c-0.16 0.12 -0.2 0.32 -0.24 0.4 c0.24 -0.12 0.24 -0.16 0.24 -0.4 z M72.32799999999999 10.280000000000001 c-0.08 0 -0.24 0.08 -0.24 0.16 c0 0.04 0.08 0.04 0.16 0.04 s0.16 0 0.2 -0.08 c0 -0.12 -0.08 -0.12 -0.12 -0.12 z M84.40799999999999 10.48 c0 -0.04 -0.04 -0.04 -0.08 -0.04 c-0.08 0 -0.12 0 -0.12 0.04 s0.04 0.04 0.12 0.04 c0.04 0 0.08 0 0.08 -0.04 z M74.448 10.32 l-0.08 0.08 l0.08 0 l0 -0.08 z M109.252 40.2 c0 -0.08 0 -0.16 0.04 -0.24 c0 -0.08 -0.04 -0.16 -0.08 -0.16 c0 0.16 -0.2 0.32 -0.24 0.32 c-0.16 -0.16 -0.36 -0.32 -0.44 -0.52 c0 -1.32 3.64 -0.36 4.28 -1.04 l-0.08 -3.76 l0 -9.56 l0.08 -0.08 c0 -1.48 -0.16 -2.68 -0.16 -4 c0 -2.04 0.16 -5.4 0.16 -6.68 c0 -1.84 -0.04 -2.6 -0.52 -3.28 l-0.48 0 l0 0.16 c-2.32 0 -1.84 0.36 -2.76 0.76 c0.08 0 -1 0.12 -1 0.64 l0.04 0.04 c0 0.08 -0.92 0.08 -0.92 0.68 c-0.92 0 -1.92 2.52 -2.36 2.96 c0 0.36 -0.84 1.24 -0.84 2.04 l0 -0.04 s-0.04 1.52 -0.84 1.52 c-0.64 0 -0.88 0.04 -1.04 -0.44 c0 -3.16 0.48 -1.88 0.48 -9.12 c9.64 -0.48 19 -0.52 23.68 -0.52 c0.68 0 1.28 0.04 1.76 0.04 c0.2 0 0.76 -0.2 0.76 1.2 c0 0.32 0 0.24 -0.08 0.36 c0.16 0.76 -0.04 2.04 0.28 2.84 c-0.04 0.04 -0.12 0.4 -0.12 0.6 c0 0.64 0.36 2.4 0.36 3.88 c0 1 -0.32 1.04 -0.96 1.04 c-0.44 0 -1.28 -2.2 -1.48 -2.84 c0.36 0.04 -0.44 -0.04 -0.44 -0.8 c-0.92 -1.24 -0.6 -1.2 -1.36 -1.96 c-0.64 -1.28 -0.92 -0.8 -1.48 -1.4 l0 0.04 c0.04 0 -0.32 -0.76 -1.08 -0.76 c-0.04 -0.36 -0.48 -0.16 -0.64 -0.52 c-1.44 -0.08 -1.32 -0.48 -1.76 -0.48 l-0.12 0.04 c-0.84 0 -0.56 0 -0.8 -0.04 c-0.08 0 -0.16 0.04 -0.16 0.04 c0 0.04 0.04 0.08 0.04 0.08 c0 0.2 -0.44 0.08 -0.44 1 c0 1.48 0.12 5.16 0.12 9.24 l0 7.6 c0 0.08 -0.08 0.44 -0.08 0.48 c0 -0.04 0 0.2 0.08 0.32 c0 0.2 0.08 3.44 0.08 3.96 c0 1.04 -0.08 2.24 -0.08 3.04 c0 0.88 0.04 1.8 0.32 1.92 c1.96 0 2 -0.08 2.92 -0.08 c0.24 0 0.76 0.08 0.76 0.8 c0 0.28 -0.32 0.52 -0.56 0.68 c-0.36 0 -1.2 -0.32 -1.72 -0.32 c-0.24 0 -0.4 0.12 -0.56 0.12 c-0.32 -0.04 -0.64 -0.12 -0.88 -0.12 l-0.08 0.08 c-0.36 0 -0.8 0.12 -1 0.12 c-0.08 0 -0.2 -0.08 -0.32 -0.08 c-0.04 0 -0.16 0.04 -0.32 0.12 c-0.4 0 -0.84 0 -0.88 -0.12 l-2.08 0 s-0.08 0.12 -0.16 0.12 c0.16 -0.04 -0.24 0.12 -0.24 -0.12 c-0.32 0 -0.56 0.16 -0.96 0.16 c-0.28 0 -0.48 -0.04 -0.6 -0.2 l0.12 -0.08 l-0.68 0 c0 0.16 0 0.32 -0.08 0.4 l-0.08 -0.16 c-0.16 0 -0.16 0.2 -0.28 0.2 c-0.16 0 -0.4 -0.24 -0.44 -0.24 l0.16 -0.12 c0 -0.12 0 -0.16 -0.08 -0.2 l0 0.04 c-0.04 0 -0.08 -0.04 -0.16 -0.04 s-0.2 0.04 -0.24 0.2 l0.08 0.24 l-0.08 0.08 l-1.24 0 z M109.05199999999999 39.88 c-0.04 0 -0.08 0.04 -0.08 0.04 c0 0.04 0.04 0.04 0.08 0.04 s0.04 0 0.04 -0.04 c0 0 0 -0.04 -0.04 -0.04 z M112.612 39.8 c-0.04 0 -0.08 0.04 -0.08 0.08 s0.04 0.08 0.08 0.08 c0 0 0.04 -0.04 0.04 -0.08 s-0.04 -0.08 -0.04 -0.08 z M108.932 39.76 l0 0.04 l0.04 0 z M113.77199999999999 39.76 l-0.08 0.04 l0.16 0 z M113.372 39.76 c0 -0.04 -0.04 -0.04 -0.08 -0.04 s-0.08 0 -0.08 0.04 s0.04 0.04 0.08 0.04 s0.08 0 0.08 -0.04 z M114.252 39.76 l0 -0.04 c-0.04 0 -0.04 0 -0.04 0.04 s0 0.04 0.04 0.04 l0 -0.04 z M114.532 39.6 c-0.04 0 -0.08 0.04 -0.08 0.08 s0.04 0.08 0.08 0.08 s0.04 -0.04 0.04 -0.08 s0 -0.08 -0.04 -0.08 z M118.972 39.6 l0 0.08 l0.2 0 c-0.04 -0.08 -0.12 -0.08 -0.2 -0.08 z M121.05199999999999 39.6 l-0.08 0.08 l0.08 0 l0 -0.08 z M121.452 39.56 c-0.08 0 -0.08 0.08 -0.08 0.12 l0.08 0 l0 -0.12 z M108.852 39.36 c0 0.08 0 0.16 0.12 0.16 s0.24 -0.04 0.24 -0.08 c0 -0.28 -0.04 -0.2 -0.24 -0.32 c-0.12 0.08 -0.12 0.08 -0.12 0.24 z M110.172 39.36 c-0.08 0.04 -0.2 0.08 -0.2 0.12 s0.08 0.04 0.12 0.04 c0.08 0 0.12 0 0.12 -0.08 z M110.932 39.28 c-0.12 0.08 -0.08 0.16 -0.08 0.24 l0.4 0 c-0.08 -0.12 -0.28 -0.12 -0.32 -0.24 z M112.292 39.52 c0 -0.04 -0.04 -0.04 -0.08 -0.04 s-0.08 0 -0.08 0.04 s0.04 0.04 0.08 0.04 s0.08 0 0.08 -0.04 z M120.732 39.52 l0.04 -0.08 z M113.172 38 c0 0 -0.04 0.04 -0.04 0.08 s0.04 0.08 0.04 0.08 s0.04 -0.04 0.04 -0.08 s-0.04 -0.08 -0.04 -0.08 z M118.532 31.119999999999997 c-0.04 0 -0.08 0.04 -0.08 0.08 s0.04 0.08 0.08 0.08 s0.04 -0.04 0.04 -0.08 s0 -0.08 -0.04 -0.08 z M113.05199999999999 24.28 c-0.04 0 -0.08 0.04 -0.08 0.08 s0.04 0.08 0.08 0.08 s0.04 -0.04 0.04 -0.08 s0 -0.08 -0.04 -0.08 z M103.332 19.6 c-0.04 0 -0.08 0.04 -0.08 0.08 c0 0 0.04 0.04 0.08 0.04 s0.04 -0.04 0.04 -0.04 c0 -0.04 0 -0.08 -0.04 -0.08 z M128.772 19.2 c-0.32 0.04 -0.32 0.4 -0.32 0.48 c0.24 -0.24 0.32 -0.24 0.32 -0.48 z M103.452 19.08 l0 0.28 c0.04 -0.04 0.04 -0.2 0.04 -0.28 l-0.04 0 z M127.732 19.04 l0 0.04 l0.16 0 z M128.772 18.24 l0 0.08 l0.04 0 z M102.732 15.68 c0 0 -0.04 0.08 -0.04 0.16 l0.04 0.08 c0.04 0 0.04 -0.08 0.04 -0.12 s0 -0.08 -0.04 -0.12 z M128.292 15.8 l-0.04 0.04 c0 0.04 0.04 0.08 0.04 0.08 c0.04 0 0.04 -0.04 0.04 -0.08 c0 0 0 -0.04 -0.04 -0.04 z M102.732 15.48 c0 0 -0.04 0 -0.04 0.04 s0.04 0.08 0.04 0.08 c0.04 0 0.04 -0.04 0.04 -0.08 s0 -0.04 -0.04 -0.04 z M102.852 12.2 c-0.08 0.04 -0.12 0.08 -0.16 0.16 c0.16 0 0.16 -0.04 0.16 -0.16 z M107.572 11.879999999999999 c-0.04 0 -0.08 0 -0.08 0.04 s0.04 0.08 0.08 0.08 s0.04 -0.04 0.04 -0.08 s0 -0.04 -0.04 -0.04 z M107.732 11.48 c0 0 -0.04 0 0.08 0.12 c0.04 -0.04 0.08 -0.08 0.08 -0.12 l-0.16 0 z M108.932 11.280000000000001 c-0.04 0 -0.08 0.04 -0.08 0.08 s0.04 0.08 0.08 0.08 c0 0 0.04 -0.04 0.04 -0.08 s-0.04 -0.08 -0.04 -0.08 z M110.852 10.96 c0 0.04 -0.12 0.2 -0.2 0.24 l0.28 0 c0 -0.08 0.04 -0.16 -0.08 -0.24 z M112.532 10.96 l0 0.08 l0.08 -0.08 l-0.08 0 z M107.572 10.8 c-0.04 0 -0.08 0.04 -0.08 0.08 s0.04 0.08 0.08 0.08 s0.04 -0.04 0.04 -0.08 s0 -0.08 -0.04 -0.08 z M107.772 10.8 c-0.04 0.04 -0.04 0.04 -0.04 0.08 c0 -0.04 0.04 -0.08 0.04 -0.08 z M108.812 10.719999999999999 l0 0.16 l0.04 -0.08 z M109.852 10.8 c-0.04 0 -0.08 0.04 -0.08 0.04 c0 0.04 0.04 0.04 0.08 0.04 c0 0 0.04 0 0.04 -0.04 z M122.532 10.8 l0 0.08 s0.16 0.08 0.16 -0.08 l-0.16 0 z M102.732 10.8 l0.12 0 l-0.04 0 c0.12 0 0.28 -0.08 0.36 -0.08 c0 0.04 -0.08 -0.28 -0.16 -0.32 c-0.2 0 -0.2 0.28 -0.28 0.4 z M104.212 10.719999999999999 c-0.04 0 -0.04 0.04 -0.04 0.08 l0.08 0 c0 -0.04 0 -0.08 -0.04 -0.08 z M121.532 10.719999999999999 c0.08 0.08 0.16 0.08 0.24 0.08 c-0.04 -0.08 -0.12 -0.08 -0.24 -0.08 z M123.012 10.559999999999999 c-0.04 0 -0.04 0.04 -0.04 0.08 s0 0.08 0.04 0.08 s0.04 -0.04 0.04 -0.08 s0 -0.08 -0.04 -0.08 z M128.132 10.239999999999998 l0.08 0.08 l0 -0.08 l-0.08 0 z">
        </path>
    </g>
    <g id="SvgjsG1789" featurekey="sloganFeature-0"
        transform="matrix(0.499367703914178,0,0,0.499367703914178,19.75287074245476,165.30971492909302)"
        fill="url(#SvgjsLinearGradient1801)">
        <path
            d="M0.7 20.04 c-0.2 0.02 -0.28 -0.64 -0.12 -0.68 c1.16 -0.3 2.08 -0.48 2.08 -1.96 l0 -8.96 c0 -1.4 -0.84 -1.68 -1.7 -1.8 c-0.16 -0.02 -0.04 -0.64 0.1 -0.64 l5.38 0 c0.16 0 0.26 0.62 0.12 0.64 c-0.86 0.12 -1.66 0.4 -1.66 1.8 l0 8.96 c0 1.14 0.5 1.54 2.2 1.54 c3.12 0 4.24 -1.34 4.72 -2.14 c0.16 -0.24 0.66 -0.14 0.66 0.2 c0 1.06 -0.84 3.04 -2.08 3.04 c-1.06 -0.06 -2.24 -0.12 -3.92 -0.12 c-1.86 0 -3.94 -0.06 -5.78 0.12 z M33.989999999999995 20.32 c-4.16 0 -7.2 -3.1 -7.2 -7.24 c0 -4.04 2.86 -7.4 7.24 -7.4 c4.18 0 7.2 3.08 7.2 7.22 c0 4.06 -2.84 7.42 -7.24 7.42 z M34.75 19.02 c1.8 0 4.26 -1.16 4.26 -5.04 c0 -4.08 -2.8 -7 -5.74 -7 c-1.8 0 -4.22 1.16 -4.22 5 c0 4.12 2.78 7.04 5.7 7.04 z M70.46 6 c0.24 0 0.32 0.62 0.04 0.66 c-0.8 0.12 -1.32 0.44 -2.04 2.14 l-3.38 7.84 c-0.7 1.64 -1.02 2.56 -1.02 3.36 c0 0.12 -1.38 0.44 -1.44 0.3 l-4.86 -11.48 c-0.74 -1.74 -1.28 -2.04 -2.06 -2.16 c-0.26 -0.04 -0.2 -0.66 0.06 -0.66 l5.12 0 c0.26 0 0.32 0.62 0.06 0.66 c-0.74 0.14 -1.48 0.44 -0.76 2.14 l3.46 8.38 l3.5 -8.38 c0.72 -1.74 -0.08 -1.98 -1 -2.14 c-0.26 -0.04 -0.2 -0.66 0.06 -0.66 l4.26 0 z M84.59 20.04 c-0.2 0.02 -0.28 -0.64 -0.12 -0.68 c1.16 -0.3 2.08 -0.48 2.08 -1.96 l0 -8.92 c0 -1.3 -0.84 -1.66 -1.7 -1.86 c-0.16 -0.04 -0.06 -0.68 0.1 -0.66 c1.48 0.14 3.82 0.12 5.16 0.12 c1.82 0 3.16 -0.08 4.76 -0.12 c0.48 0 0.48 0.32 0.38 0.78 l-0.48 1.88 c-0.06 0.28 -0.56 0.28 -0.64 0 c-0.3 -0.96 -0.9 -1.56 -3.42 -1.56 c-1.46 0 -1.92 0.36 -1.92 1.44 l0 3.28 c0 0.52 0.26 0.62 0.66 0.62 l0.42 0 c1.68 0 3.06 -0.14 3.9 -0.92 c0.2 -0.18 0.64 -0.14 0.46 0.24 l-1.16 2.52 c-0.14 0.34 -0.44 0.3 -0.66 0.02 c-0.46 -0.64 -1.5 -0.9 -2.7 -0.9 l-0.26 0 c-0.4 0 -0.66 0.1 -0.66 0.62 l0 3.42 c0 1.14 0.5 1.54 2.2 1.54 c3.12 0 4.24 -1.34 4.72 -2.14 c0.16 -0.24 0.66 -0.14 0.66 0.2 c0 1.06 -0.84 3.04 -2.08 3.04 c-1.06 -0.06 -2.24 -0.12 -3.92 -0.12 c-1.86 0 -3.94 -0.06 -5.78 0.12 z M113.18 5.68 c-0.28 1.56 -0.58 3.32 -0.86 4.86 c-0.06 0.34 -1.26 0.54 -1.24 0.22 c0.06 -1.52 0.1 -3.24 0.14 -4.76 c0.02 -0.56 2.06 -0.88 1.96 -0.32 z M131.99 20.32 c-1.66 0 -4.12 -0.74 -3.88 -1.6 l0.2 -0.72 c0.54 -2.04 1.18 0.98 4.48 0.98 c1.7 0 2.6 -0.84 2.6 -2.04 c0 -0.98 -0.68 -1.4 -2.04 -2.24 l-2.08 -1.28 c-2.1 -1.3 -2.94 -2.16 -2.94 -3.62 c0 -2.42 2.34 -4.12 4.86 -4.12 c1.52 0 3.44 0.66 3.22 1.34 l-0.24 0.74 c-0.58 1.88 -1.1 -0.76 -3.84 -0.76 c-1.46 0 -2.22 0.76 -2.22 1.84 c0 0.88 0.52 1.4 1.88 2.22 l2.2 1.34 c2.08 1.28 2.92 2.18 2.92 3.6 c0 2.48 -2.44 4.32 -5.12 4.32 z M167.92999999999998 20.04 c-0.2 0.02 -0.28 -0.64 -0.12 -0.68 c1.16 -0.3 2.08 -0.48 2.08 -1.96 l0 -8.92 c0 -1.3 -0.84 -1.64 -1.7 -1.86 c-0.16 -0.04 -0.06 -0.68 0.1 -0.66 c0.82 0.1 1.66 0.12 2.44 0.12 c1.48 0 2.88 -0.12 3.92 -0.12 c4.88 0 7.46 2.88 7.46 6.74 c0 3.88 -2.62 7.34 -7.48 7.34 c-0.96 0 -2.2 -0.12 -3.62 -0.12 c-1.18 0 -2.16 0.02 -3.08 0.12 z M174.75 19.02 c3.36 0 5.1 -1.82 5.1 -5.26 c0 -3.76 -2.1 -6.78 -5.8 -6.78 c-1.46 0 -1.92 0.46 -1.92 1.5 l0 8.92 c0 1.08 0.68 1.62 2.62 1.62 z M211.02 19.52 c0.16 0 0.12 0.52 0 0.56 c-1.2 0.44 -2.9 0.34 -4.06 -1.16 l-3.1 -3.98 c-0.84 -1.1 -1.92 -1.28 -3.34 -1.3 l0 3.9 c0 1.4 0.94 1.64 2.26 1.8 c0.14 0.02 0.04 0.66 -0.12 0.66 l-5.94 0 c-0.16 0 -0.28 -0.64 -0.12 -0.66 c1 -0.14 1.68 -0.52 1.68 -1.8 l0 -8.98 c0 -1.32 -0.72 -1.7 -1.68 -1.96 c-0.16 -0.04 -0.06 -0.66 0.12 -0.64 c0.78 0.1 1.68 0.12 2.3 0.12 c1.42 0 2.74 -0.12 3.68 -0.12 c2.96 0 5 1.22 5 3.7 c0 2.34 -1.92 3.48 -3.52 3.58 l0 0.1 c0.76 0 1.32 0.34 2.18 1.42 l3.02 3.78 c0.6 0.76 1.16 0.98 1.64 0.98 z M201.12 12.76 c3 0 4.22 -0.52 4.22 -2.58 c0 -2.14 -1.4 -3.22 -3.22 -3.22 c-1.18 0 -1.6 0.48 -1.6 1.6 l0 4.2 l0.6 0 z M224.73 20.04 c-0.2 0.02 -0.28 -0.64 -0.12 -0.68 c1.16 -0.3 2.08 -0.48 2.08 -1.96 l0 -8.92 c0 -1.3 -0.84 -1.66 -1.7 -1.86 c-0.16 -0.04 -0.06 -0.68 0.1 -0.66 c1.48 0.14 3.82 0.12 5.16 0.12 c1.82 0 3.16 -0.08 4.76 -0.12 c0.48 0 0.48 0.32 0.38 0.78 l-0.48 1.88 c-0.06 0.28 -0.56 0.28 -0.64 0 c-0.3 -0.96 -0.9 -1.56 -3.42 -1.56 c-1.46 0 -1.92 0.36 -1.92 1.44 l0 3.28 c0 0.52 0.26 0.62 0.66 0.62 l0.42 0 c1.68 0 3.06 -0.14 3.9 -0.92 c0.2 -0.18 0.64 -0.14 0.46 0.24 l-1.16 2.52 c-0.14 0.34 -0.44 0.3 -0.66 0.02 c-0.46 -0.64 -1.5 -0.9 -2.7 -0.9 l-0.26 0 c-0.4 0 -0.66 0.1 -0.66 0.62 l0 3.42 c0 1.14 0.5 1.54 2.2 1.54 c3.12 0 4.24 -1.34 4.72 -2.14 c0.16 -0.24 0.66 -0.14 0.66 0.2 c0 1.06 -0.84 3.04 -2.08 3.04 c-1.06 -0.06 -2.24 -0.12 -3.92 -0.12 c-1.86 0 -3.94 -0.06 -5.78 0.12 z M265.38 19.34 c0.28 0.04 0.2 0.66 -0.04 0.66 l-5.14 0 c-0.26 0 -0.28 -0.62 -0.06 -0.66 c0.76 -0.14 1.54 -0.42 0.8 -2.14 l-0.26 -0.6 c-0.2 -0.46 -0.58 -0.5 -1.2 -0.5 l-4.12 0 c-0.6 0 -0.98 0.04 -1.16 0.5 l-0.24 0.6 c-0.72 1.74 0.04 2 1.02 2.14 c0.24 0.04 0.2 0.66 -0.06 0.66 l-4.28 0 c-0.24 0 -0.3 -0.62 -0.06 -0.66 c0.82 -0.14 1.3 -0.44 2.06 -2.14 l3.38 -7.74 c0.78 -1.76 1.02 -2.6 1.02 -3.36 c0 -0.12 1.4 -0.44 1.46 -0.3 l4.88 11.38 c0.72 1.72 1.2 2.04 2 2.16 z M259.42 15.04 c0.28 0 0.6 -0.04 0.48 -0.32 l-2.44 -5.82 l-2.46 5.82 c-0.12 0.28 0.2 0.32 0.48 0.32 l3.94 0 z M297.19 19.34 c0.16 0.02 0.04 0.66 -0.1 0.66 l-5.06 0 c-0.14 0 -0.24 -0.64 -0.12 -0.66 c0.8 -0.12 1.44 -0.5 1.38 -1.8 l-0.36 -6.94 l-3.38 6.82 c-0.38 0.8 -0.72 1.7 -0.78 2.04 c-0.04 0.24 -0.42 0.36 -0.72 0.36 s-0.48 -0.12 -0.6 -0.36 l-4.68 -8.9 l-0.3 6.98 c-0.06 1.38 0.7 1.72 1.38 1.8 c0.16 0.02 0.04 0.66 -0.12 0.66 l-4.06 0 c-0.16 0 -0.28 -0.64 -0.12 -0.66 c0.86 -0.1 1.6 -0.4 1.68 -1.8 l0.62 -11.52 c0.02 -0.32 0.74 -0.34 0.92 0 l5.82 10.92 l5.4 -10.92 c0.16 -0.34 0.9 -0.32 0.92 0.02 l0.64 11.5 c0.06 1.4 0.78 1.7 1.64 1.8 z M315.78000000000003 20.32 c-1.66 0 -4.12 -0.74 -3.88 -1.6 l0.2 -0.72 c0.54 -2.04 1.18 0.98 4.48 0.98 c1.7 0 2.6 -0.84 2.6 -2.04 c0 -0.98 -0.68 -1.4 -2.04 -2.24 l-2.08 -1.28 c-2.1 -1.3 -2.94 -2.16 -2.94 -3.62 c0 -2.42 2.34 -4.12 4.86 -4.12 c1.52 0 3.44 0.66 3.22 1.34 l-0.24 0.74 c-0.58 1.88 -1.1 -0.76 -3.84 -0.76 c-1.46 0 -2.22 0.76 -2.22 1.84 c0 0.88 0.52 1.4 1.88 2.22 l2.2 1.34 c2.08 1.28 2.92 2.18 2.92 3.6 c0 2.48 -2.44 4.32 -5.12 4.32 z">
        </path>
    </g>
</svg>