<svg id="ibmODLrQBb" viewBox="0 0 200 175.4164733275273" height="175.4164733275273" width="200"
    style="width: 200px; height: 175.416px; position: absolute; top: 50%; left: 50%; z-index: 0; cursor: pointer; transform: translate(-50%, -50%) scale(0.718291);">
    <defs id="SvgjsDefs2103">
        <linearGradient id="SvgjsLinearGradient2110">
            <stop id="SvgjsStop2111" stop-color="#006838" offset="0"></stop>
            <stop id="SvgjsStop2112" stop-color="#96cf24" offset="1"></stop>
        </linearGradient>
        <linearGradient id="SvgjsLinearGradient2113">
            <stop id="SvgjsStop2114" stop-color="#006838" offset="0"></stop>
            <stop id="SvgjsStop2115" stop-color="#96cf24" offset="1"></stop>
        </linearGradient>
        <linearGradient id="SvgjsLinearGradient2116">
            <stop id="SvgjsStop2117" stop-color="#006838" offset="0"></stop>
            <stop id="SvgjsStop2118" stop-color="#96cf24" offset="1"></stop>
        </linearGradient>
    </defs>
    <g id="SvgjsG2104" featurekey="symbolFeature-0"
        transform="matrix(0.8992062432376831,0,0,0.8992062432376831,56.05697784494109,-4.724428054950768)"
        fill="url(#SvgjsLinearGradient2110)">
        <path xmlns="http://www.w3.org/2000/svg"
            d="M13.325,54.829c-0.083,2.959-3.042,1.416-3.042,1.416c-3.875-2.125-3.167,0.834-3.167,0.834  c2.167,2.125,0.417,3.416,0.417,3.416c0.375-1.348-0.729-2.082-0.729-2.082c-1.813-0.875-0.313-3.063-0.313-3.063  c1.125-1.688,3.688-0.063,3.688-0.063c2.563-0.688-0.625-3.688-0.625-3.688c-0.875-0.063-2.188,1-2.188,1  c-5.125-0.563-1.75-6.312-1.75-6.312c-2,7.625,2.563,4.438,2.563,4.438c0.688-2.125,9.625,2.069,9.063-0.188  c-0.562-2.256-3.125-2.313-3.125-2.313c-2.938,2.937-5.188,0-5.188,0c3.75,1.938,2.375-2.438,6.375-1.063s4.438,3.625,4.438,3.625  c2.688,1.312,9.5-1.813,9.5-1.813c-9.25-1.563-7.813-3.563-7.813-3.563c0.188,1.813,9.313,2.688,9.313,2.688  c2.125-0.75,10.454-4.447,7.062-5.955s-14.447-1.759-14.447-1.759c-12.688,8.166-10.427-1.005-10.427-1.005  c0.879,8.292,10.301-2.261,10.301-2.261c-6.156-7.789-12.563-0.125-12.563-0.125c-6.156,10.553-6.283,6.237-6.283,6.237  c2.008,0.71,5.152-7.62,5.152-7.62c3.518-5.025,8.166-4.02,8.166-4.02c-1.759-2.136-1.633-4.397-1.633-4.397  c1.884-10.427-3.884-4.527-3.884-4.527s0,0,1.087-1.493s3.048-0.638,3.048-0.638c2.022,0.663,1.633,4.648,1.633,4.648  c3.392-7.035,8.292-4.648,8.292-4.648c-2.543-1.175-6.407,4.02-6.407,4.02c-1.131,3.392,3.015,8.04,3.015,8.04  c-1.508-5.151,3.015-9.924,3.015-9.924c12.939-4.774,12.563,1.382,12.563,1.382c-2.889-4.397-10.176-0.879-10.176-0.879  c-2.261,0.628-1.759,5.904-1.759,5.904c4.397-2.262,4.773,0.754,4.773,0.754c-0.126-0.879-0.879-0.377-0.879-0.377  c-1.382-1.131-4.271,2.261-4.271,2.261c-1.256,2.764,5.653,6.156,5.653,6.156c-2.261-1.507,3.141-9.297,3.141-9.297  c9.296-6.407,7.286-1.884,7.286-1.884c-0.126-1.884-4.02,0.628-4.02,0.628c-1.131-0.126-6.658,10.553-1.633,10.302  s6.156,0.754,6.156,0.754c3.518-4.397,3.894,0.628,3.643-8.668s-9.673-11.181-9.673-11.181c-20.352-2.262-13.821-6.709-13.821-6.709  c-4.357,2.787,16.836,8.719,12.439,3.066s-10.176-1.759-10.176-1.759c2.01-1.508,7.173-4.785,10.679,0.502s9.422,5.779,9.422,5.779  c2.889-8.543,5.402-4.271,5.402-4.271c-2.011-2.01-3.894,3.266-3.894,3.266c-1.005,3.141,3.121,7.412,3.121,7.412  c-0.021-1.131,3.412-5.904,3.412-5.904c1.634-7.789-3.89-7.789-3.89-7.789c-4.015-1.005-12.442-0.377-12.442-0.377  c-9.799-3.266-1.884-4.397-1.884-4.397c-3.015,1.256,4.146,2.387,4.146,2.387c14.252-0.667,18.844,3.769,18.844,3.769  c0.754-2.638-0.251-4.146-0.251-4.146c-0.503-2.889-5.527-3.267-5.527-3.267c-8.872,1.3-7.664-0.834-7.664-0.834  c1.739,1.542,4.146,0.206,4.146,0.206c7.161-1.13,11.809,2.764,11.809,2.764c6.697,4.758-1.131,12.688-1.131,12.688  c-4.648,8.417-5.653,16.081-5.653,16.081c0-1.382,2.262-3.392,2.262-3.392c1.759-0.879,5.15-0.125,5.15-0.125  s0.252,1.256,0.126,0.628s-1.256-0.377-1.256-0.377c-4.02-0.628-4.648,6.533-4.648,6.533c4.899-0.377,7.789-5.904,7.789-5.904  c-1.382-1.759-0.503-8.041-0.503-8.041c1.256-5.653,4.021-6.91,4.021-6.91c-1.453-2.623,1.633-6.03,1.633-6.03  c7.412-3.769,9.045,4.397,9.045,4.397c-0.503,3.015,0.126,3.392,0.126,3.392c-1.005-0.879-1.131-2.764-1.131-2.764  c-1.131-4.522-6.155-3.769-6.155-3.769c-2.261,1.256-0.377,4.648-0.377,4.648c1.885-1.382,4.899,1.382,4.899,1.382  c1.257,2.261,2.764,2.261,2.764,2.261c-1.005,0.628-2.639-0.251-2.639-0.251c-1.607-1.867-3.895-1.884-3.895-1.884  c-1.885-0.125-4.146,2.512-4.146,2.512c-1.257,5.402,1.508,9.045,1.508,9.045c4.021-3.895,4.021-6.156,4.021-6.156  c2.765-2.01,8.794-2.764,11.809-0.879c1.656,1.035,1.076,0.402-0.138-0.649c-0.995-0.862-2.417-2.007-3.38-2.743  c-2.136-1.633-0.754-4.271-0.754-4.271c0.624,3.127,2.136,3.895,2.136,3.895c11.684,9.924,4.397,7.287,4.397,7.287  c-13.818-3.769-13.065,3.266-13.065,3.266c1.821-2.267,9.422-0.628,12.312,0.84s4.648,4.186,4.648,4.186  c-0.376-1.507-4.397-2.01-4.397-2.01c-14.447-7.161-20.979,5.653-20.979,5.653c3.141-0.879,6.406-3.266,17.085-2.889  s10.804,10.663,10.804,10.663c-1.006-4.412-3.518-5.036-3.518-5.036c-1.257,1.481,1.131,6.81,1.131,6.81  c5.276,2.261,1.759,8.292,1.759,8.292c2.848-5.283-4.146-5.779-4.146-5.779c-5.527,6.408-2.764,7.916-2.764,7.916  c8.753-1.043,4.396,5.025,4.396,5.025c0.387-4.16-4.647-2.766-4.647-2.766c-5.281-4.9,1.382-11.808,1.382-11.808  c0.88-11.558-8.794-6.659-8.794-6.659c4.146,4.146,3.141,8.794,3.141,8.794c5.653,26.006-5.779,14.697-5.779,14.697  c10.804,6.031,2.513-11.432,2.513-11.432c-10.302,0.252-7.035,1.006-7.035,1.006c9.832,4.928,4.899,5.275,4.899,5.275  c3.015-1.633-7.412-4.898-7.412-4.898c-4.271-3.393,5.527-2.514,5.527-2.514c9.296-1.758-2.136-8.04-2.136-8.04  c-4.271-2.764-13.944,8.669-13.944,8.669c-5.025,3.141-1.633,4.396-1.633,4.396c5.654,1.006,8.668,4.9,8.668,4.9  c13.944,16.457,23.869,2.26,23.869,2.26c-7.663,17.086-21.859,1.807-21.859,1.807c3.518,0.676,3.644,5.732,3.644,5.732  c-0.754,4.271,1.131,6.531,1.131,6.531c-2.764-0.125-2.764-6.908-2.764-6.908c-2.01-7.035-11.684-4.021-11.684-4.021  c-1.005,2.891,2.261,8.795,2.261,8.795c-0.503-1.258-0.753-3.518-0.753-3.518c1.945-3.791,4.647-0.754,4.647-0.754  c10.05,16.582,17.086,1.131,17.086,1.131c-10.05,21.859-17.588-6.031-18.468,6.406s7.161,1.256,7.161,1.256  c-8.794,14.195-6.784,0.504-9.925-0.502c-3.141-1.004-4.522-14.148-4.522-14.148c4.773,28.691-6.658,23.445-6.658,23.445  c5.276,0.879,4.648-8.166,4.648-8.166c-4.647,4.775-5.779,7.287-5.277,6.783c0.502-0.502-0.366-2.09,2.392-4.396  c2.758-2.305,1.628-11.307,1.628-11.307c-5.151,34.799-27.12,6.709-19.975,13.693s19.222-11.432,13.065-7.537  c-6.156,3.895-9.045,7.537-9.045,7.537c-2.014-2.623,6.91-7.035,6.91-7.035c-11.809,7.412-18.834,2.977-18.834,2.977  c1.392,2.6,17.075-2.85,10.417-1.594s-10.553-11.936-10.679-8.041s8.668,7.789-0.502,6.533  c-9.171-1.258-11.635-13.572-10.553-10.301s8.919,9.924,7.161,5.275S9.638,70.3,13.306,71.04s5.15,4.271,5.15,2.639  s0.502-5.654-5.276-4.648c-5.779,1.004-6.841-8.408-6.841-8.408c0.514-2.693,1.382,9.672,6.91,5.023s11.935,7.664,13.818,10.051  c1.885,2.387,12.814,7.287,7.664-7.914c-5.15-15.202,10.678-13.818,10.051-19.975c-0.629-6.156-7.789,0.754-7.789,0.754  c-11.056,6.534-24.373,3.644-24.373,3.644C10.583,51.455,13.408,51.871,13.325,54.829z">
        </path>
    </g>
    <g id="SvgjsG2105" featurekey="nameFeature-0"
        transform="matrix(1.8828176157618173,0,0,1.8828176157618173,-3.1612523857170345,77.7450595106803)"
        fill="url(#SvgjsLinearGradient2113)">
        <path
            d="M10.488 33.4766 l11.914 0 l0 6.5234 l-20.723 0 l0 -5.8008 l11.895 -16.445 l-11.895 0 l0 -6.4648 l20.645 0 l0 5.7813 z M60.80484375 40 l-7.4414 0 l-1.875 -20.234 l-6.0742 20.234 l-4.9219 0 l-6.0742 -20.332 l-1.8945 20.332 l-7.4805 0 l2.5195 -28.711 l10.879 0 l4.4922 14.668 l4.5508 -14.668 l10.84 0 z M77.62515625 11.289000000000001 c5.8789 0 9.4727 4.3164 9.4727 9.5898 c0 5.4102 -3.5938 9.3945 -9.4727 9.3945 l-5.1953 0 l0 9.7266 l-7.4414 0 l0 -28.711 l12.637 0 z M76.33615625 24.121000000000002 c2.6563 0 3.6914 -1.25 3.6914 -3.3594 c0 -1.9922 -1.0352 -3.3203 -3.6914 -3.3203 l-3.9063 0 l0 6.6797 l3.9063 0 z M107.902375 11.289000000000001 l0 6.4648 l-6.4844 0 l0 22.246 l-7.3633 0 l0 -22.246 l-6.5039 0 l0 -6.4648 l20.352 0 z">
        </path>
    </g>
    <g id="SvgjsG2106" featurekey="sloganFeature-0"
        transform="matrix(0.8561868715117098,0,0,0.8561868715117098,18.43643152805991,158.12551394025957)"
        fill="url(#SvgjsLinearGradient2116)">
        <path
            d="M4.7559 17.4121 l4.4238 0 l0 2.5879 l-7.3535 0 l0 -14.111 l2.9297 0 l0 11.523 z M20.07082890625 20.19531 c-4.1504 0 -7.2168 -2.832 -7.2168 -7.2559 c0 -4.4336 3.0664 -7.2461 7.2168 -7.2461 c4.1406 0 7.207 2.8125 7.207 7.2461 c0 4.4238 -3.0664 7.2559 -7.207 7.2559 z M20.07082890625 17.5098 c2.4316 0 4.2969 -1.709 4.2969 -4.5703 c0 -2.8516 -1.8652 -4.5508 -4.2969 -4.5508 s-4.2969 1.6992 -4.2969 4.5508 c0 2.8613 1.8652 4.5703 4.2969 4.5703 z M41.3527578125 5.888999999999999 l3.1152 0 l-5.2148 14.111 l-3.2227 0 l-5.1855 -14.111 l3.1055 0 l3.7012 10.693 z M57.17552734375 8.467 l-5.2344 0 l0 3.2031 l4.6387 0 l0 2.5488 l-4.6387 0 l0 3.1934 l5.2344 0 l0 2.5879 l-8.1836 0 l0 -14.111 l8.1836 0 l0 2.5781 z M62.939484375 12.2559 l-0.2832 -6.3672 l2.6563 0 l-0.36133 6.3672 l-2.0117 0 z M76.08645390625 20.19531 c-3.0273 0 -5.3906 -1.4551 -5.8203 -4.1016 l3.0273 -0.69336 c0.19531 1.582 1.3574 2.4023 2.9102 2.4023 c1.1914 0 2.1387 -0.52734 2.1289 -1.7188 c-0.0097656 -1.3281 -1.5723 -1.748 -3.291 -2.2754 c-2.0703 -0.64453 -4.2871 -1.4063 -4.2871 -4.0039 c0 -2.627 2.1484 -4.1113 4.9805 -4.1113 c2.4805 0 4.9805 1.0059 5.5469 3.7109 l-2.832 0.70313 c-0.26367 -1.4063 -1.2109 -2.0215 -2.5391 -2.0215 c-1.1816 0 -2.1875 0.48828 -2.1875 1.6504 c0 1.084 1.3867 1.4453 2.9883 1.9238 c2.1289 0.64453 4.6484 1.4648 4.6484 4.2773 c0 2.998 -2.5098 4.2578 -5.2734 4.2578 z M94.06985234375 20 l0 -14.111 l5.1074 0 c4.502 0 6.7285 2.832 6.7285 7.0508 c0 4.2285 -2.2266 7.0605 -6.7285 7.0605 l-5.1074 0 z M96.99955234375 17.4121 l2.0313 0 c2.5977 0 3.7891 -1.6211 3.7891 -4.4727 s-1.1914 -4.4727 -3.7891 -4.4727 l-2.0313 0 l0 8.9453 z M118.505815625 20 l-3.6719 -6.2109 l-0.84961 0 l0 6.2109 l-2.9297 0 l0 -14.111 l5.1172 0 c3.1934 0 4.541 1.8848 4.541 4.2188 c0 1.8945 -1.0742 3.125 -2.9883 3.5352 l4.248 6.3574 l-3.4668 0 z M113.984415625 8.32 l0 3.3691 l1.7285 0 c1.5625 0 2.1973 -0.66406 2.1973 -1.6797 c0 -1.0059 -0.63477 -1.6895 -2.1973 -1.6895 l-1.7285 0 z M134.70970703125 8.467 l-5.2344 0 l0 3.2031 l4.6387 0 l0 2.5488 l-4.6387 0 l0 3.1934 l5.2344 0 l0 2.5879 l-8.1836 0 l0 -14.111 l8.1836 0 l0 2.5781 z M149.5756640625 20 l-1.0254 -2.9102 l-5.9277 0 l-1.0254 2.9102 l-2.998 0 l5.1953 -14.111 l3.584 0 l5.1953 14.111 l-2.998 0 z M143.4814640625 14.6387 l4.209 0 l-2.0996 -5.9863 z M173.26899609375 20 l-2.9199 0 l-0.92773 -10.635 l-3.5742 10.635 l-1.8945 0 l-3.5742 -10.635 l-0.9375 10.635 l-2.9297 0 l1.1816 -14.111 l4.1797 0 l3.0078 8.8574 l3.0469 -8.8574 l4.1797 0 z M183.4277625 20.19531 c-3.0273 0 -5.3906 -1.4551 -5.8203 -4.1016 l3.0273 -0.69336 c0.19531 1.582 1.3574 2.4023 2.9102 2.4023 c1.1914 0 2.1387 -0.52734 2.1289 -1.7188 c-0.0097656 -1.3281 -1.5723 -1.748 -3.291 -2.2754 c-2.0703 -0.64453 -4.2871 -1.4063 -4.2871 -4.0039 c0 -2.627 2.1484 -4.1113 4.9805 -4.1113 c2.4805 0 4.9805 1.0059 5.5469 3.7109 l-2.832 0.70313 c-0.26367 -1.4063 -1.2109 -2.0215 -2.5391 -2.0215 c-1.1816 0 -2.1875 0.48828 -2.1875 1.6504 c0 1.084 1.3867 1.4453 2.9883 1.9238 c2.1289 0.64453 4.6484 1.4648 4.6484 4.2773 c0 2.998 -2.5098 4.2578 -5.2734 4.2578 z">
        </path>
    </g>
</svg>